<svg xmlns="http://www.w3.org/2000/svg" viewBox="0 0 150 40">
  <path class="st0" style="fill: #ffffff;" d="M4 26.4c.1 0 .2-.1.3 0 .1 0 .1-.1.1-.1.1 0 .1 0 .1.1.1-.2.4-.4.6-.2.1 0 0-.1.1-.1s.1-.1.2 0c-.5.4-1 .7-1.6 1V27c0 .1-.2.3-.3.2-.1.1-.2 0-.3.1.2-.5.6-.6.8-.9M14.2 21.4c-.3.5-.8.6-1.2.9-.1 0 0-.1 0-.2.3 0 .4-.4.6-.3 0 0 .1-.1.1-.2.1 0 .3-.1.5-.2M1.6 20.4c0 .1 0 .1 0 0-.1.1 0 .1 0 0M2 20.4c0 .1.1 0 .1.1s-.1 0-.1.2c-.1 0 0 .1-.1 0v-.1c-.1 0 0 .1 0 .1-.1 0-.2-.1-.2-.2.1-.1.1-.1.3-.1M2.9 20.3c-.2 0-.7.3-.8 0h.8M3.2 20.3c0 .1-.1.1-.2.1 0-.1.1-.2.2-.1M4.5 19.5c0 .1-.2 0-.2 0s.2-.1.2 0M3.8 19.4c.1 0 .1 0 0 0h.4v.1c-.1 0-.4.2-.5.1-.1 0 0 .1 0 .1-.1-.1-.2 0-.3 0 0 0-.1-.1-.2-.1.1 0 0 0 0 .1-.1 0-.1 0-.1-.1 0 .1-.3.1-.3.1-.1 0-.1.1-.2.1h-.3c-.2 0-.3.1-.5 0 .2-.2.6-.2.8-.3.5 0 .9 0 1.2-.1M10.9 19c0-.1.1-.1.1-.2h.3c-.1.1-.2.3-.4.2M11.5 18.8c.1 0 .1 0 0 0 0 .1-.1.1-.1.1s0-.1-.1 0c.1-.1.3 0 .2-.1M10.2 16.4h.3c-.1.1-.2.1-.3 0M3.5 15.4c-.1-.1-.2 0-.2 0 0-.1.2-.1.2 0M3.2 15.3c0 .1-.2 0-.3 0 .1-.1.2 0 .3 0M2.3 15.2c.1.1.2 0 .3 0v.1c-.1 0-.4.1-.3-.1M36.2 35h.1c0 .1 0 .1-.1.1V35zM35.4 34.6h.2c0 .1.1.1.2.1-.2.2-.4.1-.4-.1M34.4 9.7c-.1.2-.3.3-.4.3.1-.1.2-.2.4-.3M35.9 7.6c0 .2-.2.1-.2.3-.1-.2.1-.2.2-.3"/>
  <path class="st0" style="fill: #ffffff;" d="M36 7.6c-.1 0 0 .1-.1.1 0 0-.1 0-.1-.1.1-.1.2-.1.2 0M36.6 7c-.1 0 0 .2-.2.2 0-.1.1-.2.2-.2M2.8 13.7c.1 0 .2.1.3.1-.1 0-.3 0-.3-.1M2.6 13.6c0 .1.1 0 .2.1-.1 0-.2 0-.2-.1M2.3 13.5c-.1.1-.2 0-.3 0 .1-.1.3 0 .3 0M2 15.2c0-.1.1-.1.2-.1v.1c-.1 0-.1.1-.2 0M34 10.1c0 .1-.1.1-.2.1 0 0 .1-.1.2-.1M36.4 7.2c0 .1-.2.3-.4.4 0-.3.3-.3.4-.4M25.1 11.6c-.1 0 0 .1 0 0-.1 0-.1 0 0 0M25.1 11.4c.1 0 0 .1 0 .2 0-.1.1-.2 0-.2M26.9 8.6c.1.1.1 0 .1 0 0 .1 0 .2-.1.4s-.4.3-.5.7h-.1c.1.1-.1.1 0 .2 0 0-.1 0 0 0 0 0-.1 0-.1.1-.1 0-.2.3-.2.3-.1 0-.3.2-.2.3h-.1c.2-.4.4-.6.5-1 .2-.1.3-.3.4-.5 0-.1.1-.1.1-.3h.2c-.1 0-.1-.2 0-.2M28.1 6.9c0 .1-.1.3-.2.2.1.2-.1.2-.1.3-.3 0-.4.6-.7.7.1.1-.2.2-.1.4-.1.1-.1 0-.2 0 .2-.3.3-.6.6-.8v-.2c.1-.1.2-.2.2-.3.4 0 .4-.2.5-.3M13.5 8.3c.1 0 .1.1.1.1 0 .1-.1-.1-.1-.1M9.8 4.6c0 .1.1.1.1.3-.1 0-.1-.1-.2-.1 0-.1 0-.1.1-.2M24.6 7.2c.1 0 .1.1.1.1-.2.3-.3.7-.6.9 0 .1-.1.1 0 .2-.2.2-.2.6-.5.7-.3.8-.8 1.4-1.1 2.1-.1 0-.2.3-.3.5h.1c0 .1-.1.1-.1 0-.3.3-.5.7-.7 1.1h-.1c-.1.3-.3.5-.4.7-.1-.1.1-.2 0-.4.2-.3.3-.6.6-.9-.1-.1.1-.2.2-.4.1-.1.1-.3.2-.3.1-.5.4-.7.5-1.1h.1c0-.3.3-.5.3-.8.2 0 .1-.2.2-.2v-.2h.1v.1c.3-.2.3-.7.6-.9.1-.3.3-.4.4-.7.2 0 .1-.3.3-.3 0-.1 0-.1.1-.2M24.1 7.2c.1-.1 0 0 0 0l.1.1c-.1 0-.1 0-.1-.1"/>
  <path class="st0" style="fill: #ffffff;" d="M25.2 6.2c-.1.4-.3.7-.5 1 0 0-.1 0-.1-.1.3-.3.4-.6.6-.9M24.2 3.3c.1.1 0 .4-.1.5V4c-.1 0-.1 0-.1.1-.2-.2.2-.5.2-.8M17.7 7v.1c0 .1-.1-.1 0-.1M17.5 6.1c0-.1-.1 0-.1-.1v-.2s-.1-.1-.1-.2c.2.2.3.4.2.5.1.2.1.3.1.5h.1v.3c-.1-.2-.2-.4-.1-.7-.1 0-.1 0-.1-.1M17.3 2.3c.1.1 0 .2.1.2-.1.1-.1-.1-.1-.2M11 22.4c.1-.1.3 0 .3-.2.2 0 .6-.2.8-.3.1 0 .2 0 .2-.1h.1c.2-.2.5-.3.7-.6.1 0 .3 0 .3-.2 0 .1.2 0 .1 0 .3 0 .6-.2.7-.3.1 0 .4 0 .5-.1.1 0 .1.1.2.1.1.2.2.3 0 .5-.1.1-.3.4-.4.5-.1.1-.2.1-.2.2-.1 0-.1.1-.1 0-.3.4-.6.6-1 .9-.1 0 0 .1-.1.1-.2.1-.4.3-.7.5-.1.1-.3.2-.4.4-.3.1-.5.4-.8.5-.2.2-.5.3-.7.5-.2 0-.4.3-.7.3v.1c-.1 0-.1.1-.2 0-.4.3-.9.5-1.3.7v.1c-.2 0-.4.1-.5.3h-.1v.1h-.1c-.2.2-.6.2-.7.5-.3 0-.5.3-.8.4v.1c-.3.1-.5.2-.7.5h-.2c0 .1-.2.2-.3.3-.1 0-.1.1-.1.2-.3 0-.4.3-.6.4v.1c-.3.1-.4.4-.9.5 0-.1-.1-.2-.2-.1 0-.1.1-.1.1-.2s-.1 0-.1-.1.1-.2.2-.3c-.1.1-.3.1-.3.2-.4.1-.8.4-1 .6h-.2c0-.1-.1-.1-.1-.1-.1-.1-.1-.3-.1-.4.4-.4.9-.7 1.4-1 0-.1-.1-.1-.1-.2v-.3l-.1-.1c-.1-.1-.1-.4-.1-.6-.1.2-.3.1-.5.3V27c-.2.1-.3.3-.5.2v.1c-.1-.1-.2-.4-.1-.5.2 0 .3-.2.4-.3.1 0 .3 0 .3-.1.1 0 .1 0 .1-.1h.1c0-.2 0-.4.1-.6.1 0 .2 0 .3-.1.1 0 .4.1.4-.1.1 0 .1 0 0 .1.3-.1.7-.3 1-.3v-.1c.1.1.2.1.3-.1.1.1.3 0 .4-.1.1.1.2 0 .2-.2.1.1.1 0 .3 0v.2c.2-.1.7-.1.7-.4.2 0 .4 0 .5-.2.1 0 .3 0 .4-.1.1 0 0 0 .1.1 0-.1.1-.1.1-.2.2 0 .3-.2.5-.3.2 0 .5-.1.7-.3 0 0 .2 0 .2-.1.1 0 .3 0 .3-.1.2 0 .5-.2.6-.4.1.1.1-.1.2 0v-.1c.1.1.2 0 .2-.2 0 .1.3 0 .3.1.1-.2.6-.2.7-.4M10 18.4c.2.1.5-.1.6 0 0 0 .1 0 .1-.1.1 0 .4 0 .5-.1.3.1.7-.1 1 0 .2-.1.6 0 .9-.2 0 .1.2 0 .3.1.3-.3.9.1.7.4-.1.1-.2 0-.3.1.1 0 .1.1.1.2-.1.4.4.4.2.8-.1 0-.2.1-.3.1.1.1.2.2.3.4 0 .1-.1.2-.1.3-.5.1-1 0-1.3 0 0 0 0-.1-.1 0-.2.1-.3 0-.5.1-.1 0-.1.1-.1.1h-.2c-.1 0-.2.1-.2 0h-.1c-.3.1-.7-.1-.9.2-.3-.1-.7.3-1.1.2-.2 0-.4.1-.5 0-.3.2-.7.1-1 .3 0-.1-.1 0-.1 0-.6.2-1.3.3-1.9.3-.1.1-.4.1-.6.1-.1 0-.1.1-.1.1-.1 0-.3-.1-.3 0-.1 0 0-.1-.1 0s0 .2-.1.3c0 0 0-.1-.1-.1s-.2 0-.2.1h-.2c-.1 0 0 .1-.1.1-.2 0-.5-.1-.6-.3-.1.1-.1-.1-.2 0-.1 0 0 0 0 .1-.3-.2-.6.1-1 .1v.1c-.4 0-.6.3-1 .2-.1-.1 0-.2-.1-.4-.3.2-.9.4-.8-.2.5-.2 1.1-.4 1.6-.6 0 0-.1 0 0-.1 0-.1.3-.1.5-.2-.1 0-.4 0-.4.1s0-.1-.1-.1c-.3.1-.6 0-.8 0-.1 0 0 0-.1-.1-.1 0-.4.1-.4 0-.3.1-.4-.1-.5-.3 0-.3.3-.2.4-.4h.2c0-.1.1-.2 0-.4.1-.2.4-.2.5-.4 0 .1.2.1.2 0 .1.1.3 0 .4-.1.1.1.3 0 .4 0 0 0-.1 0-.1-.1-.2.1-.5-.1-.7.1-.1 0-.1-.1-.1-.1-.1 0-.2.1-.2 0-.1 0-.2-.3-.2-.3-.1-.1-.2.1-.3 0-.3 0-.6.1-.8-.1v-.2c0-.1.1-.1.1-.2H1c.2 0 .6.1.7 0 .1 0 .1.1.2.1s0-.1.1-.1c0 .1.2.1.2 0 .1.1.3.1.4.2.2-.1.3 0 .4 0l.1-.1c-.1.2.4.2.5.1v.1c.2-.1.5.1.6-.1 0 0 0 .1.1 0 .1 0 0 .1.1.1v-.1c0-.1.1 0 .1 0 .1 0 .1.1 0 .1.2-.1.2 0 .5 0v-.1c.1 0 .1.1.1 0 0 0 .2 0 .1.1.3 0 .9.1 1.2 0 .1.1.3.1.4 0 .2.2.4-.1.6.1 0 0 .1 0 .1-.1 0 .1.2.1.3.1v-.1c.5.2 1.2.1 1.7 0 .1-.1.4 0 .5-.2M3.7 12.2v-.1c.1.1.1.3.4.3 0 .1.1.2.2.1.1.1.2.2.3.2.1.2.4.2.6.3v.1c.2.1.3.3.5.3v.1H6l.3.3c.3 0 .6.4 1 .4 0 .1.2 0 .2.2.4.1.8.4 1.2.4.3.2.6.2.9.4h.1c.4.3.9.4 1.4.6 0 .1.1.1.2.1s.1.1.2.1c.2.1.4 0 .5.2.6.1 1.1.2 1.6.1l.1.1c0 .2-.1.3-.1.4 0 .1.1 0 .2 0 .6.2 1.1.5 1.7.7 0 .1.1.1.1.3-.2.2-.3.3-.7.2 0-.2-.4-.1-.5-.2-.2 0-.2-.1-.3-.1v.1c-.1 0-.1-.1 0-.1H14c-.1 0-.1-.2-.2-.1-.2-.2-.5-.2-.7-.4-.2 0-.4 0-.4-.1-.1 0-.1.2-.1.3-.1 0-.4-.1-.6-.1 0 0-.1 0 0 .1h-.1c-.1 0 0-.1 0-.1h-.1s-.1 0 0-.1c-.3 0-.7-.2-1 0v-.1c-.1 0 0 .1 0 .1s-.1-.1-.1-.2c-.1 0-.1.1-.2.1 0-.1-.1 0-.1-.1l-.1.1-.1-.1v.1c-.1-.1-.3-.1-.4-.1-.1 0-.4-.1-.6-.1-.1 0 0 0-.1.1 0-.1-.2-.1-.3-.2v.1c-.1 0-.1-.1-.2-.1-.1-.1-.2.1-.3.1-.1 0-.1-.1-.2-.1-.2 0-.2-.1-.4-.1-.1 0 0 0-.1.1-.1 0-.1-.1 0-.1-.1 0-.1 0-.1.1-.3-.1-.7-.2-1-.1v-.1c-.1.1-.2-.1-.3 0 0 0-.1 0 0-.1-.1.1-.1 0-.2 0h-.1c.1.1-.1 0 0 .1-.1 0 0-.1 0-.1-.2.1-.5-.1-.7 0-.1-.1-.4-.2-.4 0-.1 0-.2-.2-.2-.1-.1 0-.2-.1-.3-.1v.1c-.1 0-.1-.1-.1-.1-.1-.1-.3 0-.4 0L3 16c-.2-.3-.6-.1-1-.2l-.1-.1h-.5c-.2 0-.2 0-.4-.2-.1-.2 0-.2.1-.4v0c.1.1.1 0 .3 0 .1.1.3-.1.3.1 0-.1 0-.1.1 0 .1 0 0-.1 0-.1-.5-.1-.2-.7.3-.6.1 0 .2.2.4 0-.1 0-.1 0-.2-.1h-.1c-.1-.1-.3-.2-.4-.2-.1-.1-.2-.2-.2-.3h.1c0-.2.3-.3.3-.5-.2-.1-.3-.2-.5-.2-.2-.1-.3-.3-.3-.6 0 0 .1 0 .1-.1.5-.2.9.3 1.3.2v-.1c.2 0 .3-.1.5 0-.1-.2-.3-.1-.4-.3-.1 0-.2-.1-.3-.1-.1-.3 0-.3.1-.5h.4c0 .1.2 0 .1.2.1 0 .1-.1.2-.1 0 .1.1 0 .2 0 0 .1.1 0 .1.1 0 0 0-.1.1 0 .1.2.1.1.1.3M16.2 7.8c.2.6.4 1.2.5 1.7 0 .1.1 0 .1.1-.1 0-.2.1-.2.2-.3-.1-.4-.5-.2-.6 0-.1 0-.1-.1-.1.1-.2 0-.4-.1-.5 0-.3-.1-.5-.1-.8.1 0 .1.1.1 0M15.8 6.7c.2.2.2.7.3 1-.1 0 0 .1-.1.1 0-.5-.2-.6-.2-1.1M15.7 6.3c.1 0 .1.1 0 0l.1.3c-.1 0 0-.1-.1-.3M5.1 6.3c0 .1.1.3.3.2-.1 0 0 .1 0 .1.2 0 .4.2.6.3v-.2c.1 0 .2-.1.3-.2.1 0 .1.1.2.2.1 0 0 0 0-.1 0 0 0 .1.1.1s.1-.2.3-.1c.1.2.4.3.5.6h.1v.1c.4.2.7.7 1.1 1 0 .1.2.1.1.3h.1v.1c.3 0 .3.3.6.4.1.2.2.4.4.4.1.3.3.3.4.6h.1c.1.1.2.3.3.4v.1c.3.1.3.5.6.6.3.5.7.7 1 1.2h.1c-.1.1.2.1.1.3h.1c.2.2.3.5.6.6v.3c.2.2.4.4.7.4 0 .1.1.1 0 .1.3 0 .5.4.8.5 0 .2.3.2.3.4.2.3.5.5.8.7.1.1-.1.5-.2.5.2.2.3.5.6.6.1.2-.1.4-.2.5h-.3c0-.1-.1-.1-.1 0-.4-.2-.7-.6-1.1-.7-.2-.3-.6-.4-.8-.7h-.1v-.1c-.1-.1-.4-.2-.4-.4 0-.1-.1-.1-.2-.1-.1-.2-.4-.2-.4-.4-.2-.2-.5-.2-.6-.5-.1 0-.2-.1-.2-.2-.2 0-.2-.1-.3-.3h-.1c0-.2-.1-.2-.3-.3-.3-.3-.7-.5-1-.8h-.1c-.1-.2-.4-.2-.5-.4h-.1c0-.1-.2-.1-.3-.3-.1-.1-.4-.2-.5-.3-.1 0-.1-.1-.2 0 0-.1-.2-.2-.3-.2-.2-.1-.3-.3-.6-.3V11c-.2 0-.2-.2-.5-.2v-.1c-.4-.2-.7-.4-1-.6V10c-.1 0-.4-.2-.6-.4h-.1c-.1-.1-.4-.2-.4-.2-.2-.2-.3-.3-.6-.4 0 0 0-.2-.2-.2v-.2c.1-.1.2-.1.3-.2.3.1.6.3.8.4 0-.1 0-.2.1-.3h.2c.1 0 .1.1.2.1s-.1-.1 0-.1c-.4-.1-.4-.2-.6-.3 0-.1-.2-.2-.2-.3 0-.1.1-.1.1-.2.1 0 .2 0 .3.1.1 0 .1-.1.1 0 .1-.1.3.1.6.1 0-.1-.2-.2-.2-.2 0-.1-.1-.2-.1-.2 0-.3-.3-.3-.3-.4-.3.2-.3 0-.3-.1h-.1c0-.2-.3-.2-.2-.4-.3-.2.2-.4.4-.3 0 .1 0 .1 0 0M36.2 5.7c.1 0 .1.1 0 0 .2.1.3.1.3.3-.2 0-.2.3-.3.5-.1.2-.2.3-.4.4V7l-.3.3c-.3.1-.3.5-.7.7-.2.3-.5.5-.6.8-.1 0-.1.1-.2.1V9c-.2.1-.3.2-.5.3-.1 0-.1.1-.1.1-.1 0-.1.1-.2.1 0 0-.1.1-.1.2-.1.1-.2.1-.3.2-.2.1-.3.3-.5.3-.1.2-.4.4-.6.5.2.1.4-.1.4-.2h.1c.2-.2.7-.4.8-.7.2.1.3-.3.5-.3 0-.3.5-.5.5-.2.1 0 .1-.1.1-.2.5-.4 1.2-.8 1.7-1.2h.2c.1.1.1.1.1.3.2.2-.2.3-.3.5h-.2c.1.3-.3.3-.4.6.1.1.2.1.3.1v.2c0 .2-.2.3-.2.4-.3 0-.5.4-.7.6 0 .1.1 0 .2 0v-.1c.1.1.4.1.4-.1 0 .1.1 0 .2 0s.1.1.1.1c0 .2.2.4 0 .5-.2 0-.2.1-.3.1-.2.2-.6.1-.7.4-.1-.1-.2 0-.2.1-.4-.1-.6.4-.8.3l-.9.6v0c-.1.2-.4.2-.5.4H32c-.1.2-.4.2-.5.3h-.1c-.1.1-.4.1-.5.3-.8.2-1.4.8-2.3.9v.1c-.1-.1-.1.1-.2 0 0 0 0 .1-.1.1-.1-.1-.2.1-.3.1-.1-.1-.3.1-.4.1-.4.3-.8.6-1.1.9h-.1v.1c-.2 0-.3.3-.5.4 0 .2-.2.1-.3.3-.2.1-.3.3-.5.1-.1-.2-.1-.4 0-.5 0-.1-.1-.1-.1-.1-.1 0-.1.1-.1.1-.2-.1-.3.3-.5.3-.2.1-.3-.1-.4-.2 0-.5.6-.4.6-.8.1-.2.4-.2.4-.5.3 0 .4-.5.7-.6 0-.2.3-.2.3-.4.1 0 .1-.1.1 0 .3-.3.6-.5.9-.8V13c.2 0 .3-.2.4-.4.2.1.3-.2.4-.3h.1c.1-.2.5-.2.6-.5.2-.1.4-.2.5-.4.1 0 .3-.1.3-.3h.1c.3-.3.7-.5.9-.8.2 0 .3-.2.4-.3h.1c.3-.4.7-.4 1-.9.1 0 .1 0 .1-.1 0 .1.1 0 .1-.1.1 0 .2 0 .2-.2.3 0 .6-.2.7-.5.4-.1.5-.7 1.1-.6 0 .2.1.2.1.3.4-.3.8-.8 1.2-1.3h.2c.1-.3.5-.5.5-.8.1 0 .1.1.2.1v-.2M26.7 11.8c-.3.2-.5.3-.6.7H26c-.2.3-.5.5-.7.8-.3.1-.3.4-.6.5v.1c-.3.2-.5.7-.9.9-.1.2-.2.3-.4.5v.1c-.2.1-.4.7-.7.3h-.2v-.1c-.3 0-.3-.1-.4-.3.3-.5.8-.8 1-1.4.1 0 .1-.1.2-.1.2-.4.4-.6.5-1h.1c.1-.6.7-1 .8-1.6.2 0 .2-.2.2-.3.1-.2.2-.3.3-.5h.1c0-.2.2-.3.1-.4h.1c-.1-.2.2-.2.1-.4.1 0 .1-.1.1 0 .2-.3.5-.7.7-1 0-.1.1-.3.2-.4.1.1.2-.2.2-.3h.1c.1-.1.1-.3.3-.3.1-.3.3-.6.6-.7 0-.4.4-.4.5-.8h.1c0-.2.2-.2.2-.4h.3c0 .1 0 .1.1.2.3-.3.5-.8.8-1.1v-.1c.1-.1.2-.1.2-.1.1 0 .1.1.1.1.1.1 0 .2.1.2 0-.1 0 .1-.2.1 0 .3-.4.4-.3.7-.2 0-.3.1-.3.3-.2.2-.4.5-.7.7v.1c-.2-.1-.1.1-.2.2s-.2.2-.2.4h-.1c-.1.3-.3.6-.5.9.1.2-.1.2-.1.3.2-.1.2-.2.2-.3h.1c.2-.3.4-.5.5-.9h.1c0-.3.3-.3.3-.6.2.1.2-.1.2-.2h.1v-.2c.1-.1.2-.4.3-.4h.1c0-.1 0-.2.1-.2 0-.1-.1-.1 0-.2.1.2.2-.2.4-.1.1.1.2.3.1.4.1.1.2 0 .4 0 0 .1.1.1.1.2.1 0 .2-.1.3-.2l.3.3c.1.4-.3.4-.4.8-.2 0-.2.3-.4.4 0 .1-.2.2-.3.4v.1c0 .1-.1.1-.1.2-.1-.1-.1.1-.2.1 0 .1-.1.3-.2.4h-.1c0 .2 0 .4-.2.4-.1.3-.4.3-.4.6h-.1c-.3.4-.8.8-1 1.2-.2.1-.3.2-.4.4-.2 0-.2.1-.2.2-.1 0-.2.1-.2.2-.2-.1-.2.1-.3.2M12.5 3.4v.1c.1.1.1.4.3.4V4c.1.4.3.5.4.9.2.3.3.7.5 1 0 .3.2.6.4.9-.1.1-.1.2 0 .2-.1.2.2.4.2.5.1.2.1.5.3.6 0 .1 0 .2.1.3 0 .3.3.6.3 1 .4.5.5 1.4.9 2-.1.2.1.2.1.4.2.4.3.9.5 1.2.1.3.2.6.4.8.2.1.1.5.3.6 0 .2 0 .5.2.6.2.3.3.6.5.8 0 .3-.2.5-.5.4-.1-.2-.3-.4-.4-.7-.3-.1-.3-.4-.4-.6h-.1c0-.2 0-.2-.2-.3.1-.1-.2-.6-.4-.8 0-.1-.1-.1-.2-.1.1-.2-.1-.4-.3-.5v-.1c-.4-.3-.6-.7-.9-1.2 0 0 0-.1-.1-.1v-.1c-.2-.1-.2-.4-.4-.6-.1-.2-.4-.4-.4-.6l-.3-.3V10c-.5-.4-.7-1.1-1.2-1.5.1-.2-.4-.3-.3-.6-.2-.1-.2-.4-.4-.3-.1-.2-.3-.5-.5-.6v-.1c-.1-.1-.4-.3-.4-.5-.1 0-.1-.1-.2-.1 0-.1-.1-.2-.2-.4H10c-.1-.3-.4-.5-.7-.8 0-.2.1-.3.1-.5.1 0 .2 0 .1.1.1 0 .1-.1.2-.1-.2-.2-.3-.5-.5-.6 0-.1 0-.2-.1-.3 0-.1.1 0 .1-.1s-.1-.1-.1-.1c0-.2.2-.2.3-.3 0 .1.1.2.2.1.2.3.4.5.5.7.5-.1.5.4.8.7 0-.2.1-.3.1-.4.2.1.6.1.6.4.4.4.7.9 1 1.3 0-.3-.2-.5-.3-.7.1-.1-.1-.2-.2-.3v-.1c0-.2-.3-.3-.3-.4h.2c0-.1-.1-.1-.1-.2 0-.2.2-.1.3-.2-.1-.5-.2-.8-.4-1.2-.1-.5-.4-.8-.5-1.2 0 0 0-.1.1-.1.2 0 .1-.2.3-.2 0 .1-.1 0-.1.1.1.1.2.1.3.2-.1.3.1.6.1.7 0 .1.2.3.2.4v.1c.1.2.2.3.2.5h.1"/>
  <path class="st0" style="fill: #ffffff;" d="M22.1 2.9h.3s0 .1 0 0c.1.2 0 .3 0 .5h-.1c-.1.4-.1.8-.2 1.1-.1.9-.3 1.5-.5 2.3 0 .1.1 0 0 .1-.1 0-.1.2-.1.3-.1.4-.2.7-.2 1v.1c-.2.3-.2.7-.2 1 .2-.6.4-1.2.5-1.8.1 0 .1-.1.1-.1 0-.5.3-1.1.3-1.4h.1c.1-.6.2-1.1.4-1.6h-.1c.1-.1 0-.2.1-.2.1-.2.3-.4.2-.7.1-.3.3-.3.2-.7h.1c-.1-.2 0-.6.3-.7.1 0 .2.1.2.1.1-.2.1-.6.5-.6.4.3-.1.8 0 1.1h.1c.1.1.1.2.2.2 0-.1.1-.3.1-.4.2-.2.1-.4.2-.7.1-.1.1-.2.1-.3 0-.1-.1-.1 0-.1s.2 0 .2-.1v-.1c.1-.1.2 0 .3.1l-.2.2c.1.3-.1.7-.1 1 .3 0 .4.2.5.4-.1.2-.2.7-.2.9-.2.6-.3.9-.4 1.5h-.1c0 .2-.1.4-.1.6h-.1c.1.4-.2.5-.2.8.1-.1.2-.2.2-.4.1 0 .3-.3.3-.5.2-.1.3-.3.3-.4h.1v-.2h.1c0-.1.1-.1.1-.3h.1c.1-.4.4-.6.5-1 .2-.1.2-.6.6-.6.1 0 .2.2.3.2-.1.5-.4.8-.5 1.3-.3.4-.4 1-.7 1.4-.3.8-.8 1.5-1.2 2.3h-.1c0 .2-.2.4-.2.6-.2.1-.2.5-.4.6-.1.4-.4.6-.5 1.1-.1.1-.1.4-.3.4 0 .2-.1.3-.2.4h-.1v.1c-.4.6-.7 1.4-1.1 2v.1c-.1 0-.3.2-.3.4-.3.1-.3.5-.5.6 0 .2-.2.4-.5.3-.1 0 0-.2-.1-.1-.1-.3.2-.3.2-.6-.1-.1-.2 0-.3-.1-.1-.4.1-.6.2-1.1.1-.1.1-.4.2-.6 0-.1-.1-.1-.1-.1.1-.9.2-2 .4-3h-.1c.2-.1.1-.2 0-.3h.1c.1-.4.1-.8.3-1.1 0-.1 0 0-.1 0 0-.3.2-.6.1-.9.1-.3.3-.8.2-1 0-.1 0 0 0 0 .2-.5.2-.9.3-1.4h.1c0-.3.1-.7.2-.9-.1-.4.1-.8.2-1M17.3 2c-.1-.2 0-.4 0-.6.1-.1.2-.1.3-.1.1.1.3.2.4.4.1.1 0 .4.1.5v.1c.1.1.2.4.1.6.1.6.2 1.2.4 1.8.2 1.3.4 2.6.4 4.1h.1c-.1.6 0 1.1 0 1.7 0 .1 0 .1.1.1-.1.1-.1.3 0 .4-.1.1.1.3 0 .4.1.3-.1.6.1 1-.2.4 0 1.1-.1 1.7 0 .1-.2 0-.2.1-.1 0-.1-.1-.2-.1-.1.4.1.8 0 1.3-.4.1-.5-.1-.6-.5 0-.2-.1-.4 0-.5v-.5h-.1c.1-.1 0-.1 0-.2-.1.1-.2.1-.3 0 0 0 0 .1-.1 0-.1-.2-.3-.4-.2-.6-.1-.1-.1-.3-.2-.4 0 0 .1-.2 0-.3l-.1-.1c0-.1.1-.1.1-.2 0-.2-.1-.4-.1-.5h.1v-.1c0-.1-.1-.1-.2-.1 0-.1 0-.1.1-.1-.1-.4-.2-.9-.2-1.2 0-.5-.2-1.2-.3-1.7 0-.1-.2-.2-.2-.3.1.1 0-.2 0-.3-.2-.1-.1-.6-.3-.7 0-.2 0-.3-.2-.5 0 0 .1-.1 0-.1-.1-.3-.1-.6-.3-.8-.1-.5-.2-1.1-.4-1.5.1-.1 0-.2-.1-.3 0-.2-.1-.4-.2-.5 0 0-.1 0-.1.1s.1.1.1.2h-.1c0-.1 0-.2-.1-.3 0-.1.1-.2.2-.2 0-.3.1-.6.3-.7.1 0 .1.1.3.1 0 .1 0 .2.1.1 0 .1 0 .3.1.3 0 .2.1.6.2.9 0 0 0 .1 0 0 0 .3.2.6.2.8h0c0 .1.2.5.2.6 0-.1 0-.2-.1-.3.1-.1 0-.2 0-.3 0 0 0 .1-.1 0 0-.1.1-.1.1-.1 0-.3-.2-.4-.1-.6 0 0 0-.1-.1-.1v-.3c-.2-.6-.3-1.3-.5-1.9 0-.2.1-.3.2-.4h.3c0-.1.1-.2.2-.1V.8h.3c0 .1 0 .1.1.1-.1.1.1.1 0 .1.1.1 0 .4.3.4l-.1.1c.3.1.3.3.4.5"/>
  <path class="st1" style="fill:#66b877;" d="M41.6 21c0-3.7 2.7-6.7 6.6-6.7 2.4 0 3.8.8 5 2L51.7 18c-1-1-2.1-1.6-3.6-1.6-2.5 0-4.3 2-4.3 4.5s1.8 4.6 4.3 4.6c1.6 0 2.6-.6 3.7-1.7l1.5 1.5c-1.3 1.4-2.8 2.3-5.2 2.3-3.7 0-6.5-2.9-6.5-6.6M61.7 27.4v-1.2c-.7.8-1.7 1.4-3.2 1.4-1.8 0-3.5-1-3.5-3 0-2.2 1.7-3.2 3.9-3.2 1.2 0 1.9.2 2.7.4v-.2c0-1.3-.8-2.1-2.4-2.1-1.1 0-1.9.2-2.8.6l-.6-1.8c1.1-.5 2.1-.8 3.7-.8 2.9 0 4.3 1.5 4.3 4.1v5.8h-2.1zm0-4.1c-.6-.2-1.4-.4-2.2-.4-1.4 0-2.2.6-2.2 1.5s.8 1.4 1.9 1.4c1.5 0 2.6-.8 2.6-2v-.5zM66.7 17.6h2.2v2.2c.6-1.5 1.7-2.4 3.4-2.4v2.4h-.1c-2 0-3.3 1.3-3.3 3.8v3.7h-2.2v-9.7zM73.6 22.6c0-2.8 2.2-5.1 5.2-5.1s5.2 2.3 5.2 5c0 2.8-2.2 5.1-5.2 5.1s-5.2-2.3-5.2-5m8.2 0c0-1.7-1.2-3.2-3-3.2s-2.9 1.4-2.9 3.1c0 1.7 1.2 3.1 3 3.1 1.7 0 2.9-1.4 2.9-3M86.3 23.8v-6.2h2.2v5.5c0 1.5.8 2.4 2.1 2.4s2.2-.9 2.2-2.4v-5.5H95v9.7h-2.2v-1.5c-.6.9-1.5 1.7-3 1.7-2.2.1-3.5-1.4-3.5-3.7M97.2 26.1l1-1.5c1 .8 2.2 1.2 3.2 1.2s1.5-.4 1.5-1c0-.8-1-1-2.2-1.4-1.4-.4-3-1-3-2.9 0-1.8 1.5-3 3.5-3 1.2 0 2.5.4 3.6 1.1l-.9 1.6c-.9-.6-1.9-.9-2.7-.9-.9 0-1.4.4-1.4 1 0 .7 1.1 1 2.2 1.4 1.4.4 3 1.1 3 2.8 0 2-1.6 3.1-3.6 3.1-1.4-.1-3-.6-4.2-1.5M106.9 22.5c0-2.8 2-5.1 4.7-5.1 3.1 0 4.7 2.4 4.7 5.2v.6h-7.1c.2 1.6 1.4 2.5 2.8 2.5 1.1 0 1.9-.4 2.6-1.2l1.3 1.2c-.9 1.1-2.2 1.8-4 1.8-2.9.1-5-2-5-5m7.2-.7c-.1-1.4-1-2.6-2.5-2.6-1.4 0-2.3 1-2.5 2.6h5zM118.8 13.9h2.2v13.4h-2.2z"/>
  <path class="st0" style="fill: #ffffff;" d="M125.5 25.4l1.9-1.9c.9 1 1.8 1.5 3.1 1.5 1.1 0 1.8-.6 1.8-1.6s-.9-1.6-2.5-1.6h-1.2l-.4-1.8 3.1-3.1h-5.1v-2.4h8.7v2.1l-3.3 3.1c1.7.3 3.5 1.2 3.5 3.6 0 2.4-1.8 4.2-4.6 4.2-2.3.1-3.9-.8-5-2.1M137.4 21c0-3.8 2.3-6.7 5.7-6.7 3.4 0 5.7 2.9 5.7 6.6 0 3.7-2.3 6.7-5.7 6.7-3.5 0-5.7-2.9-5.7-6.6m8.5 0c0-2.4-1.1-4.1-2.8-4.1-1.7 0-2.8 1.7-2.8 4.1 0 2.4 1.1 4.1 2.8 4.1 1.7-.1 2.8-1.8 2.8-4.1M29.7 37.5s-.1.1-.1.2c0 0 .1.1 0 .1-.5.1-.6-.3-.9-.4 0 .1.2.2.1.4 0 .1.1 0 .1.1v.2c-.1 0-.1 0-.1.1-.1-.1-.2 0-.3 0 .1.1.1.2.2.4 0 .1-.1.1 0 .1-.1.2-.3.1-.4.2 0-.1-.1-.3-.2-.3.1-.1-.2-.4-.3-.6v-.2c0-.1-.1-.1-.1-.3-.1-.3-.3-.6-.4-.7v-.1c-.1-.2-.3-.4-.5-.6 0 0 0 .2.1.2 0 .3.2.4.3.6 0 .4.4.7.5 1.1h.1c0 .1 0 .2.1.2-.1.2.3.5-.1.7-.1 0-.1-.1-.2 0v.2c-.2.1-.2 0-.4.1-.4-.2-.3-.9-.7-1.2.1-.1-.1-.3-.1-.4-.6.3-.6-.4-.8-.9 0-.2-.1-.5-.2-.6.1-.1-.1-.2-.1-.3 0-.2-.1-.4-.2-.6 0-.1 0-.3-.1-.4 0-.1 0-.3-.1-.3 0-.2-.1-.4-.2-.6-.1-.1-.1-.4-.2-.4 0-.3-.2-.4-.3-.7-.4-.5-.6-1.4-1.1-1.9 0-.1-.1-.2 0-.4-.2-.1-.1-.4-.4-.6 0-.2-.1-.4-.2-.6-.2-.3-.3-.5-.4-.9 0 0 0-.1-.1 0 0-.2-.1-.3-.3-.4v-.1c-.1 0 0 .1-.1 0 0-.1-.1-.2-.1-.3-.1-.2-.4-.5-.2-.8 0 0 0-.1-.1-.1-.1-.3-.5-.4-.5-.9.1-.1.2-.2.5-.1.1 0 .1.2.2.1.1.1.1.2.2.3.1.1.2.1.3.2 0 0 0 .1.1.1.3.4.6.8 1.1 1.1.1.2.3.3.4.5.4.2.5.7.9.9.3.4.7.8 1 1.2.1.1.2.3.3.3.2.3.5.7.8.9 0 .1.2.3.3.4.1.2.2.4.5.5.2.3.3.5.6.7.1.4.5.6.7.9.4.3.6.8 1 1.1.1 0 .1 0 .1-.1 0 0 0 .1 0 0 .1 0 0 .1 0 .1.1.1.2.3.3.2v.1c.3.4.6.8 1 1.2 0 .2.3.3.2.5 0 .1-.1.1-.1.2-.2 0-.3 0-.5-.2-.1 0-.2.1-.3.1-.2-.1-.3-.2-.4-.3-.1 0-.1-.2-.3-.2 0-.2-.3-.6-.5-.7H29c-.1-.3-.3-.3-.6-.4 0 .1.1.1.2.2.2.5.6.7.7 1.1.1 0 .2.1.3.2.2.6.1.7.1.6M23.2 34.3c.2.5.5 1.1.7 1.6-.1.2.1.5.2.5 0 .1 0 .3.2.3-.1.2.2.4 0 .6-.1.1-.3 0-.3 0-.1-.1-.1-.2-.2-.3-.1 0-.2.1-.3.1-.1 0-.1-.1-.1-.1.1.4.2 1 .4 1.5-.2.2-.6.1-.5-.3-.1-.5-.2-1-.4-1.5v.4c-.1.1-.4.1-.5 0-.2.3 0 .9.1 1.3 0 0-.1.1-.1.3-.1-.1-.1 0-.1.1v1c0 .1-.2.1-.2.2-.5.1-.3-.5-.3-.9-.1-.2 0-.5-.1-.6 0-.6-.1-1-.1-1.5 0-.1-.1 0-.1 0-.1-.1 0-.1 0-.2-.1-.8-.1-1.5-.3-2.3 0-1-.3-1.9-.4-2.9.1-.1 0-.2 0-.2h-.1c-.1-.2-.1-.5-.1-.8 0 0-.1.1 0 .1-.1 0 0-.3-.1-.2v-.2h.1c-.2-.2-.1-.7-.3-1 .1-.1 0-.4-.1-.5 0-.4-.2-.9-.2-1.5 0-.1 0-.4-.2-.4h.1c0-.3-.3-.4-.3-.6 0-.1.4-.4.1-.5v-.2c.2-.1.5.1.5.4.1 0 .1.2.2.2.1.2.2.5.3.7v.1c.1.1.1.2.2.4.4.1.2.6.4.8v.1c.1.1.1.5.3.6-.1.1.1.2.2.3h-.1c.1.2.1.4.2.5 0 .2.2.3.2.6h.1c.1.2.1.4.2.6 0 .1.1.2.1.3 0 .1.1.2.2.3v.3c.1.2.3.5.4.8.1.2.1.5.2.7 0 .1.1.2.2.3-.4.5-.4.7-.3.7M34.2 30.6c.1 0 0 .2 0 .3.2.1.5.2.7.3-.1.1-.1.1-.3.2.1.1.4.3.3.6.1.1.1.2.1.3-.1 0-.1.1-.1.2.1.2.4.2.3.5-.1 0-.1.1-.2.2.2.2.5.2.6.4h.2c.1.2.3.2.4.4 0 .1-.1.3-.1.3h-.2c-.1 0-.1-.1-.2-.1h-.1c-.3-.2-.7-.3-1.1-.4-.1-.1-.2-.1-.2-.2h-.1c-.4-.2-.9-.4-1.3-.7-.1 0-.2-.1-.3-.1 0 0-.1 0-.1.1-.1-.1-.2 0-.2.1-.3 0-.5-.2-.7-.4h-.1l-.4-.4c0-.2-.1-.3-.1-.3-.1-.1-.3-.1-.4-.2.1.1.2.3.4.4 0 .2.4.3.5.6.1 0 .1.1.3.1v.1s.1.1.1 0c.2.3.4.6.7.8.1.1 0 .3 0 .4-.1-.1-.2.1-.4.1-.3-.3-.6-.6-.9-1h-.1c-.2-.2-.5-.5-.7-.6-.1-.2-.3-.2-.4-.4-.9-.9-2-1.7-2.8-2.6-.3-.2-.5-.6-.8-.7 0-.2-.4-.4-.5-.6-.2 0-.2-.2-.4-.3v-.1c-.8-.4-1.4-1.1-2.2-1.6-.1-.2-.2-.3-.2-.5.1-.1.2-.1.3-.2.1.1.3 0 .4.1.2-.1.5.1.6.3.1 0 0-.1.1-.1.3-.1.5.2.7.2.3.3.7.4 1 .6h.1c.1.3.4.3.6.4 0-.1.1 0 .1 0 .1.1.2.2.3.2l.1.1c.2 0 .4.2.6.3l.1-.1c.1.1 0 .2.1.2 0 0 .1-.1.1 0h.2c.1.1.3.1.3.3.4 0 .6.3 1 .4h.1c.1.2.4.3.6.3 0 .1.2.1.3.1 0 .1.3.1.3.3h.1c.1.2.3.2.5.3.1 0 .1-.1.1 0v.1c.1.1.2.2.4.2.3.2.6.4 1 .5.1.1.3.1.3.3h.1c.1.2.4.2.5.3v-.3M16.3 38.5c0-.1.1-.1 0 0v-.9c.1-.1 0-.4.1-.6l-.2-.1c-.2-.6 0-1.3.1-1.9v-.2c.1-.2 0-.5.1-.7 0-.1-.1.1-.1 0 .1-.2.2-.4.1-.6.2-.2.1-.7.2-.9 0-.1-.1 0 0-.1.3-1.3.1-2.8.2-4.3-.1-.3-.3-.9-.1-1.3-.2-.5-.2-1-.5-1.5 0-.3.4-.6.6-.2 0-.2 0-.3.2-.4.1 0 .1.1.2.2 0 .1.1.1 0 .2.2.2 0 .4.1.6h.2c0 .1.2.2.2.3 0 .1-.1.1-.1.1 0 .2.1.5 0 .7 0 .1-.1.1-.1.2v.9c0 .1.2.3.1.4.4 1.1.5 2.2.9 3.3.1.7.4 1.6.5 2.4.1.4.2.8.3 1.1.2.7.4 1.4.5 2.2-.1.1-.1.2-.3.2-.1.5.2.9 0 1.4-.2.1-.3 0-.5 0-.2-.7-.1-1.6-.4-2.3-.1.2-.1.4 0 .5-.1 0-.1.2-.1.2 0 .1.1 0 .1.1-.1.3.1.8-.1 1.1 0 .1.1.1.1.2s-.1.1-.1.2c-.2 0-.3-.1-.4-.2-.2-.9-.2-2-.4-2.8-.1 0 0 .2-.1.2.1.3 0 .7 0 1.2 0 .4.1.8 0 1.1-.1 0-.1.1-.3 0 0 .4.1.7 0 1-.2.1-.4-.1-.5-.1-.1-.3-.1-.8-.2-1-.1.2 0 .6-.3.6.1.1.1-.3 0-.5M14.8 24.2c0-.1.1-.2.1-.3.1.1.1-.1.3 0 .1 0 .2.2.3.3 0 .9-.1 1.4-.2 2.2 0 .3 0 .6-.1.9 0 .5-.1.9-.2 1.2 0 .6-.2 1.1-.3 1.7h-.1c0 .1.1.1 0 .1-.1.5-.3 1-.3 1.5h-.1v.5c0 .1-.1.1-.1.1s.1 0 .1.1c0 0-.1 0-.1.1s0 .4-.1.5c0 .1 0 .1.1.1-.2.4-.3 1.1-.2 1.5-.1.1-.1.3-.1.4 0 .2-.1.4-.1.5-.1.3-.2.7-.2 1.1h-.1c.1.3-.3.6-.2 1-.1.1-.1.2-.1.3-.1.2-.4.1-.6 0 .1-.6.4-1.5.5-2.2-.1-.1-.3-.1-.3-.3 0-.5.3-.7.2-1.1-.2.3-.2.9-.4 1.2.1 0 .1.1.1.1 0 .1-.1 0-.1 0v.2h-.1c-.1.1 0 .3-.1.3 0 .1.1 0 .1.1-.2.1-.2.5-.2.7-.1.2-.6.1-.5-.2-.4-.1-.4.5-.8.3-.1-.6.2-1.1.4-1.6.1-.2.2-.4.2-.6.1-.2.1-.4.3-.6v-.1c.2-.2.2-.5.3-.8-.1.1-.2.3-.2.5-.1 0-.1.1-.1 0v.3c-.1-.1-.1.1-.2.3-.1.1-.1.2-.2.3v.1c0 .1-.1.2 0 .3-.1.1-.2.1-.4.1-.1-.1-.1-.1-.2-.1 0 .1-.1.2-.1.2-.1-.1-.2.1-.3.1 0 0 0-.1-.1-.1-.1-.4.4-.8.4-1.1h.1c.1-.2.3-.5.3-.7h.1v-.1c.2-.2.3-.7.4-1 .2-.2.2-.3.2-.6h.1c0-.3.2-.4.1-.6.1 0 .1-.3.2-.3 0-.1.1-.2 0-.3h.1c.1-.5.3-.8.4-1.3h.1c0-.4.3-.9.4-1.2h.1c.1-.5.4-1 .4-1.4.2-.3.4-.7.4-1.1 0-.1.1-.2.1-.3.1-.2.2-.5.2-.7h.1c0-.2.1-.4.2-.7 0 .2 0 .1.1.2"/>
  <path class="st0" style="fill: #ffffff;" d="M8.1 31.6h-.2c-.3.2-.5.4-.6.6-.1 0-.2.1-.2.2-.1-.1-.1 0-.2.1v.1c-.2 0-.4.3-.5.4v.2l-.1-.1c-.1.1-.3.1-.3.3-.2.2-.3.4-.4.5-.3 0-.4-.4-.6-.6.1-.2.2-.5.4-.6-.1 0-.3.1-.4 0v-.1s-.1 0-.1-.1c0-.2.2-.1.2-.3.2 0 .4-.2.5-.4.2 0 .3-.3.4-.3.1-.2.2-.3.4-.4.1-.1.1-.2.2-.3.1-.1.2-.1.3-.2 0 0 0-.1.1-.2.1 0 .3-.2.3-.3.2 0 .3-.3.5-.4.2-.1.4-.2.6-.4.1-.1.3-.1.3-.3.3 0 .3-.3.6-.4v-.2c.1 0 0 .1.1.1.1-.1.3-.2.3-.3.4-.1.5-.5.9-.7v-.1c.1-.2.3-.2.4-.3l.2-.2h.1s0-.1.1-.2c0 0 .1 0 .2-.1s.1-.2.2-.4v.1c.4-.2.6-.8 1-1 0-.2.3-.4.4-.7.2-.1.2-.3.3-.4.1-.3.3-.6.5-.7.3 0 .3-.2.5-.4.1 0 .2-.1.2-.1.1 0 .1.1.2.1 0 .1-.1.2.1.2v.3c-.4.2-.5.6-.8.9v.1c-.1-.1-.2.2-.2.3 0 .1-.1.1-.1 0-.1.4-.3.5-.4 1-.2.1-.2.5-.3.7 0 .1-.1 0-.1 0-.6 1.1-1.2 2.2-1.9 3.1v.1c-.1 0-.2.1-.1.2-.2.2-.4.4-.5.8-.4.3-.4.8-.7 1.2.1.1-.2.6-.3.7.1.2-.2.4-.1.5-.2.2-.2.7-.5.7-.1-.1-.2-.1-.3-.2v-.2c-.1 0 0 .1 0 .1-.7 0-.7.2-.7.3-.3.3-.5.8-.8 1.2v.1c-.1 0-.2.1-.3.1-.2-.1-.2-.2-.3-.3 0-.2.2-.2.2-.4v-.1c.1-.3-.3-.2-.4-.4.1-.5.5-.5.6-1 .4-.4.7-1 1.1-1.5"/>
                </svg>