<svg id="Layer_1" xmlns="http://www.w3.org/2000/svg" viewBox="0 0 200 100">
  <style>
    .st0{fill:#010101;}
  </style>
  <g id="Layer_1_1_">
    <path class="st0" d="M181.2 49.7v.5c0 5.6.4 8 3.2 8 2.8 0 4.3-2 4.3-5.4v-.3h1.1v.2c0 3.2-1.6 6.3-5.4 6.3-4.7 0-7.6-3.3-7.6-8.9 0-5.3 2.6-9.2 6.8-9.2 4 0 6.2 3.4 6.2 7.8v1h-8.6zm-4.7-5.1c-.9 0-1.7-.7-1.7-1.7 0-.8.4-1 .4-1.5 0-.4-.3-.7-.7-.7-.7 0-1.1.4-1.4 1.5 1.4 1.3 2.3 2.8 2.3 5.2 0 4.4-2.6 6.4-6.1 6.4-1.7 0-3.3-.8-4.2-1.7-.4.3-1 .9-1 1.4 0 1 .9 1.4 2.6 1.4l4.2.1c4.1.1 6 2.3 6 5.2 0 3.1-2.4 6.2-7.9 6.2-4 0-6.9-1.6-6.9-4.3 0-1.7 1.5-3.3 4-3.6-1.9-.1-3.7-1.6-3.7-3.6 0-1.5.8-2.5 2.2-3.3-.9-1.1-1.4-2.5-1.4-4.3 0-3.8 2.4-6.3 6-6.3 1.5 0 2.6.3 3.2.8.2-1.3 1.4-2.2 2.7-2.2 1.7 0 2.9 1.3 2.9 3.1.2 1.1-.6 1.9-1.5 1.9zm-21.7 14.3V58h1.3c.7 0 1-.3.8-1.1l-1.6-6.8h-5.2l-1.4 5.8c-.3 1.4 0 2.1 1.4 2.1h.7v.9h-5.5V58h.1c1.2 0 1.7-.6 2-2l5.5-22.3h3.2l5.5 23.1c.2.9.8 1.3 1.5 1.3h.6v.9l-8.9-.1zM144 44.8c-.8 0-1.7-.6-1.7-1.6 0-1.2.7-1.1.7-1.9 0-.5-.2-.8-.9-.8-.9 0-1.5 1.1-1.5 2.3 1 1.1 1.7 2.7 1.7 4.5 0 4.4-2.6 6.4-6.1 6.4-1.7 0-3.2-.6-4.1-1.5-.4.3-.8.8-.8 1.3 0 .7.6 1.3 2.3 1.3l4.2.1c4.6.1 6.3 2.2 6.3 5.3 0 3.1-2.4 6.1-7.8 6.1-4 0-6.9-1.6-6.9-4.3 0-1.7 1.5-3.3 4-3.6-1.9-.1-3.7-1.7-3.7-3.5 0-1.3.7-2.4 2-3.2-.9-1.1-1.5-2.6-1.5-4.4 0-3.8 2.4-6.3 6.1-6.3 1.6 0 3 .5 3.8 1.3.2-1.7 1.3-2.6 2.9-2.6s2.9 1.2 2.9 3c-.1 1.1-.8 2.1-1.9 2.1zm-34.5-5.5c-1.3 0-2.4-1-2.4-2.3 0-1.3 1.1-2.4 2.4-2.4 1.3 0 2.4 1.1 2.4 2.4 0 1.3-1.1 2.3-2.4 2.3zM122 58.9V58h1c.6 0 .7-.3.7-.9V44.9c0-2-.3-2.9-1.4-2.9-1.5 0-2.7 1.6-2.7 5.6v9.3c0 .9.4 1.1.8 1.1h.9v.9H114V58h.8c.6 0 .7-.3.7-.9V43.3c0-.8-.3-1.3-1.2-1.3h-.9v-.9h5.9v3.2c.7-2.4 1.8-3.5 4.2-3.5 2.9 0 4.2 1.9 4.2 4.3v11.6c0 .9.4 1.2 1 1.2h1.1v.9l-7.8.1zm-16.4 0V58h1.2c.6 0 .7-.3.7-.9V43.3c0-.8-.3-1.3-1.2-1.3h-.9v-.9h6.1v15.8c0 .9.4 1.1.9 1.1h.8v.9h-7.6zM90.2 39.3c-1.3 0-2.4-1-2.4-2.3 0-1.3 1.1-2.4 2.4-2.4 1.3 0 2.4 1.1 2.4 2.4 0 1.3-1.1 2.3-2.4 2.3zm9.8 19.8c-1.5 0-2.7-.5-3.7-1.6-.2-.2-.3-.2-.4-.2-.1 0-.2.1-.2.3l-.6 1.4h-.7v-7.5h.8c.5 3.8 1.7 6.9 4.7 6.9 1.7 0 3.1-1.3 3.1-2.9 0-3.8-8.6-3.6-8.6-9.3 0-2.9 1.9-5.2 5.4-5.2 1.4 0 2.6.6 3.4 1.5.1.1.2.2.3.2.1 0 .2-.1.2-.2l.5-1.4h.7v6.3h-.9c-.5-3.5-1.9-5.5-4.3-5.5-1.5 0-2.6 1.1-2.6 2.3 0 4 8.8 3.2 8.8 9.4.1 3.1-2.3 5.5-5.9 5.5zm-13.7-.2V58h1.2c.6 0 .7-.3.7-.9V43.3c0-.8-.3-1.3-1.2-1.3h-.8v-.9h6.1v15.8c0 .9.4 1.1.8 1.1h.9v.9h-7.7zm-3.2.3c-2.3 0-4.1-1.5-4.1-4.2V42h-1.7v-.9h1.1c.7 0 .8-.2.9-.7.2-1.4.3-3.6.3-5.1h3.6v5.8h2.6v.9h-2.6v13c0 2.6.3 3.1 1.2 3.1 1.1 0 1.8-1.3 1.8-4.3v-2.3h.8v2.3c0 2.7-.4 5.4-3.9 5.4zm-7.4-12c-1.1 0-2.1-.9-2.1-2.1 0-1.4 1.4-1.8 1.4-2.5 0-.3-.2-.7-.7-.7-1.2 0-2 1.4-2 5.3v9.7c0 .9.4 1.1.8 1.1h1.7v.9h-8.6V58h1.1c.6 0 .9-.4.9-1V43.3c0-.8-.3-1.3-1.2-1.3h-.8v-.9h5.9v2.8c.2-1.9 1.2-2.8 2.6-2.8 2 0 3.3 1.6 3.3 3.4 0 1.7-1.1 2.7-2.3 2.7zM55.3 42c-.9 0-1.3.4-1.6 1.4l-3.9 15.5h-3l-4.3-15.8c-.2-.9-.5-1.1-1-1.1h-.3v-.9h7.3v.9h-.8c-.8 0-1.1.4-.9 1.2l2.9 11.4 2.8-11.2c.2-.9-.1-1.4-.9-1.4h-.9v-.9h5.2v.9h-.6zM37.2 58.9v-2.3c-.4 1.5-1.6 2.6-3.4 2.6-3.6 0-6.2-3.9-6.2-8.9 0-5.1 2.6-9.1 6.1-9.1 1.6 0 2.7 1 3.2 2v-7.5c0-1-.2-1.3-1.2-1.3h-1.2v-.8H41v23.3c0 .9.4 1.1.8 1.1h1.6v.9h-6.2zm-16.9 0V58h1.3c.7 0 1-.3.9-1.1l-1.6-6.8h-5.2l-1.4 5.8c-.3 1.4 0 2.1 1.4 2.1h.8v.9h-6.3V58h.6c1.3 0 1.9-.6 2.3-2l5.5-22.3h3.2l5.5 23.1c.2.9.8 1.3 1.5 1.3h.8v.9l-9.3-.1zm165.5-10.6c0-5-.6-6.6-2.3-6.6-1.8 0-2.4 1.1-2.4 6.5v.5h4.7v-.4zM171.5 46c0-2.3-.2-4.2-2.1-4.2-1.6 0-2.1 1.8-2.1 4.2v3c0 2.7.6 4 2.1 4 1.6 0 2.1-1.2 2.1-4v-3zm-18.7-6.9l-2.4 10.1h4.8l-2.4-10.1zm17.7 19.5c-1.6 0-3.5-.1-3.5-.1-1.3.5-2.2 1.6-2.2 3.2 0 2.6 2.3 3.8 4.6 3.8 3 0 5.4-1.2 5.4-3.7 0-2.4-2-3.1-4.3-3.2zM138.4 46c0-2.5-.3-4.2-2.1-4.2-1.6 0-2.1 1.8-2.1 4.2v3c0 2.7.6 4 2.1 4 1.6 0 2.1-1.2 2.1-4v-3zm-.8 12.6c-1.6 0-3.5-.1-3.5-.1-1.3.5-2.2 1.6-2.2 3.2 0 2.6 2.3 3.8 4.6 3.8 3 0 5.5-1.2 5.5-3.7.1-2.4-2-3.1-4.4-3.2zM36.9 47c0-3.5-1.1-4.9-2.5-4.9-1.9 0-2.2 1.4-2.2 7.3v1.5c0 6.1.6 7.3 2.3 7.3 1.6 0 2.5-1.5 2.5-4.5l-.1-6.7zm-18.5-7.9L16 49.2h4.7l-2.3-10.1zm39.8 10.6v.5c0 5.6.4 8 3.2 8 2.8 0 4.3-2 4.3-5.4v-.3h1.1v.2c0 3.2-1.6 6.3-5.4 6.3-4.7 0-7.6-3.3-7.6-8.9 0-5.3 2.6-9.2 6.8-9.2 4 0 6.2 3.4 6.2 7.8v1h-8.6zm4.7-1.4c0-5-.6-6.6-2.3-6.6-1.8 0-2.4 1.1-2.4 6.5v.5h4.7v-.4"/>
    <path class="st0" d="M181.4 41.7c0 .3-.3.6-.6.6s-.6-.3-.6-.6.3-.6.6-.6c.3-.1.6.2.6.6zm.1 0c0-.4-.3-.7-.7-.7-.4 0-.7.3-.7.7 0 .4.3.7.7.7.4 0 .7-.3.7-.7zm-.4-.2c0-.2-.1-.3-.3-.3h-.4v.8h.2v-.3h.1l.1.3h.2l-.2-.3c.3 0 .3-.1.3-.2zm-.1 0c0 .1 0 .1-.1.1h-.2v-.2h.2s.1 0 .1.1"/>
  </g>
</svg>