<svg id="Layer_1" xmlns="http://www.w3.org/2000/svg" xmlns:xlink="http://www.w3.org/1999/xlink" viewBox="0 0 200 100"><style>.st0{clip-path:url(#SVGID_2_);fill:#010101;} .st1{fill:#010101;}</style><defs><path id="SVGID_1_" d="M79.7 21.2h66.8v57.7H79.7z"/></defs><clipPath id="SVGID_2_"><use xlink:href="#SVGID_1_" overflow="visible"/></clipPath><path class="st0" d="M122.7 39.8c-1.3 0-1.9.9-1.9 2.9v14.7c0 2 .6 2.9 1.9 2.9 1.4 0 1.9-.9 1.9-2.9V42.8c0-2.1-.5-3-1.9-3"/><path class="st0" d="M131.6 19.6c-.1.7-.1 1.3-.2 1.8-1 5.1-3.6 7.7-8.9 7.7-4.8 0-8.6-2.9-8.6-7.9v-1.7h-7.2c-.4 3-.7 6-.7 9h-7.3c.2-3 .5-6 .9-9H68.7v60h24.9c.2-5 3.4-8.5 8.7-8.5 5.3 0 8.6 3.5 8.7 8.5h4.2v-4.2c3.2 0 5.3-1.3 6.4-4.3h5.3v8.5h29.5v-60h-24.8zm-29.2 47.3c-7.3 0-9.1-4-9.1-10 0-3.3.7-5.6 3.4-7.6-2.2-2.2-3-4.2-3-7.2 0-5.2 3.3-8.9 8.7-8.9 5.4 0 8.7 3.7 8.7 8.9 0 3-.8 4.9-3 7.2 2.7 2 3.4 4.4 3.4 7.6 0 6-1.9 10-9.1 10m29.5-10.7c0 6.7-2.2 10.7-9.2 10.7-7.1 0-9.2-4-9.2-10.7V44c0-6.7 2.2-10.7 9.2-10.7 7.1 0 9.2 4 9.2 10.7v12.2z"/><path class="st0" d="M122.4 23.2c1.4-.2 1.9-1.5 2-3.3v-.3h-4v.8c0 2.2.9 2.8 2 2.8M102.4 77c-1.3 0-1.7.5-1.8 2.5h3.7c-.2-2-.7-2.5-1.9-2.5M102.4 52.3c-1.6 0-2 1.1-2 4.2s.4 4.2 2 4.2 2-1.1 2-4.2c0-3-.4-4.2-2-4.2M102.4 47c1.5 0 1.9-.7 1.9-3.9 0-3.1-.4-3.9-1.9-3.9s-1.9.7-1.9 3.9.4 3.9 1.9 3.9"/><g><path class="st1" d="M179.6 42.7c0-1.9.8-2.7 2-2.7s2.1.8 2.1 2.7v4.8h7.6c0-3.9-.2-6.2-.6-7.7-1.1-4.5-4.9-6.4-9.3-6.4-7.7 0-9.9 4.7-9.9 16.7s2.3 16.7 9.9 16.7c4.5 0 8.3-1.9 9.3-6.6.4-1.7.5-4.2.6-8.5h-7.6v5.7c0 1.9-.9 2.7-2.1 2.7s-2-.8-2-2.7V42.7zm-21.5-2.8c3.4 0 3.7 1.2 3.7 7.1v5.9c0 5.9-.3 7.1-3.7 7.1V39.9zm-7.5 26.3h7.7c9.3 0 11.2-3.8 11.2-16.2 0-14-2.6-16.2-11.2-16.2h-7.7v32.4zM66.2 42.5l2 13.3h-3.8l1.8-13.3zm4.7-8.7h-9.1l-5.6 32.3h7.2L64 62h4.6l.6 4.1h7.2l-5.5-32.3zM37 66.2V46.9h.1l3.4 19.3h4.2l3.4-19.3h.1v19.3h6.5V33.8h-8.9l-3.1 15.4h-.1l-3.2-15.4h-8.9v32.3H37zM18.8 42.5l2 13.3H17l1.8-13.3zm4.7-8.7h-9.1L8.8 66.2H16l.6-4.1h4.6l.6 4.1H29l-5.5-32.4z"/></g></svg>