<?xml version="1.0" encoding="utf-8"?>
<!-- Generator: Adobe Illustrator 19.1.0, SVG Export Plug-In . SVG Version: 6.00 Build 0)  -->
<!DOCTYPE svg PUBLIC "-//W3C//DTD SVG 1.1//EN" "http://www.w3.org/Graphics/SVG/1.1/DTD/svg11.dtd">
<svg version="1.1" id="Layer_1" xmlns="http://www.w3.org/2000/svg" xmlns:xlink="http://www.w3.org/1999/xlink" x="0px" y="0px"
	 width="200px" height="100px" viewBox="-1 -0.4 200 100" style="enable-background:new -1 -0.4 200 100;" xml:space="preserve">
<style type="text/css">
	.st0{fill:#010101;}
</style>
<g>
	<path class="st0" d="M4.3,48.9c-0.7,0.7-1.5,1-2.3,0.7v5.6h13v-5.8c-1.1,1.2-2.5,0.7-2.4-0.4l0,0c-2,2.4-3.1,1-2.8,0.1l0,0
		c-1.9,2.2-3,0.9-2.5-0.2l0,0C5.1,51.7,3.5,50.6,4.3,48.9L4.3,48.9L4.3,48.9z"/>
	<path class="st0" d="M8.9,41.5c0.2-0.5,0-1.1-0.2-1.2l0,0c0.8,0.1,1.5,1.2,1.5,2.5c0,1.7-1.8,2.9-1.7,4.3l0,0
		c0.4-2,3.3-3.1,2.7-5.2l0,0c0.9,0.5,1.2,2.1,1.4,3.2l0,0c0.3-1.1,2-1.9,2.3-2.8l0,0v6H2v-3.1c0-1.9,3.2-1.8,3-3.5l0,0
		c0.9,1.5-0.5,2.8-0.3,3.8l0,0C5.5,42.5,8.3,43.3,8.9,41.5L8.9,41.5z"/>
	<path class="st0" d="M19.8,44.5c0-0.8-0.2-1.4-1.8-1.4L18,42.8v-0.3c0-0.1,0.1-0.1,0.3-0.1c0.5,0,1.7,0.1,2.4,0.1
		c0.8,0,1.5-0.1,2.3-0.1c0.4,0,0.5,0,0.5,0.2v0.3c0,0.1-0.2,0.1-0.5,0.1c-0.7,0-1.4,0-1.4,0.9v4.1h7.8v-3.4c0-1.2,0-1.5-1.5-1.7
		c-0.2,0-0.2-0.1-0.2-0.3v-0.2l0.1-0.1c0.6,0,1.8,0.1,2.9,0.1c1.1,0,1.7-0.1,2.2-0.1l0.1,0.1v0.3c0,0.2-0.2,0.2-0.4,0.2
		c-1,0-1.4,0.1-1.4,1.2v9.1c0,1.2,0.7,1.4,1.8,1.4c0.1,0,0.1,0.2,0.1,0.4c0,0.1-0.1,0.1-0.6,0.1c-0.7,0-1.4,0-2.2,0s-1.9,0-2.1,0
		c-0.5,0-0.6,0-0.6-0.1v-0.4h0.1c1.8,0,1.9-0.4,1.9-1.7v-4.3h-7.8v4.6c0,1,0.2,1.3,1.5,1.3c0.2,0,0.3,0,0.3,0.2v0.2
		c0,0.1-0.2,0.1-0.6,0.1c-0.7,0-1.4,0-2.3,0c-0.6,0-1.3,0-2.1,0c-0.1,0-0.3,0-0.4-0.1v-0.4h0.1c0.9,0,1.8-0.1,1.8-1L19.8,44.5
		L19.8,44.5z"/>
	<path class="st0" d="M37.9,50.1c0-1-0.2-1.9-1.5-1.9c-0.4,0-1.3,0.2-1.3,0.7c0,0.1,0,0.3,0.1,0.4L33.9,50c0-0.1-0.1-0.3-0.1-0.5
		c0-0.6,0.6-1,1-1.2l1.7-0.9c0.2-0.2,0.3-0.2,0.3-0.2c1.5,0,2.4,0.7,2.4,2.2v3.9c0,0.4,0,1.1,0.5,1.1c0.4,0,0.5-0.1,0.7-0.5l0.3,0.1
		c-0.2,0.9-0.6,1.7-1.4,1.7c-1.2,0-1.3-1.1-1.3-1.7c-0.7,0.7-1.7,1.7-2.7,1.7c-1.1,0-1.7-1.3-1.7-2.2c0-0.3,0.3-0.9,1.9-1.5l2.5-0.9
		L37.9,50.1L37.9,50.1z M37.8,51.5L36,52.3c-0.3,0.1-0.9,0.5-0.9,0.9c0,0.5,0.2,1.4,0.8,1.4s1.2-0.6,1.8-1l0.1-0.2L37.8,51.5
		L37.8,51.5z"/>
	<path class="st0" d="M44,53.4c0,0.7,0,1.3,1.3,1.3c0.1,0,0.1,0.1,0.1,0.3s0,0.2-0.1,0.2c-0.6,0-1.3,0-2,0s-1.4,0-2.1,0
		c-0.1,0-0.1,0-0.1-0.1V55c0-0.1,0-0.2,0.4-0.2c0.8,0,0.9-0.3,0.9-1.3v-4c0-0.3-0.2-0.6-0.5-0.7c-0.1,0-0.6-0.1-0.6-0.3
		s0.1-0.2,0.3-0.3l1.3-0.6c0.4-0.2,0.7-0.3,0.8-0.3s0.1,0.1,0.1,0.1v2l0,0c0.6-0.7,1.4-2.1,2.6-2.1c0.6,0,1,0.3,1,0.9
		c0,0.4-0.4,0.7-0.7,0.7c-0.5,0-0.7-0.3-1.2-0.3c-0.5,0-1,0.6-1.4,1.1L44,49.9L44,53.4L44,53.4z"/>
	<path class="st0" d="M49.1,49.8c0-0.7,0-0.9-0.4-1.1l-0.6-0.2c-0.1,0-0.1-0.1-0.1-0.2c0-0.1,0-0.1,0.2-0.2l2.2-1
		c0.1,0,0.1,0.1,0.1,0.2c0,0.4,0,0.7,0.1,1.1c0.6-0.4,2.1-1.2,2.7-1.2c2.1,0,3.5,2,3.5,3.8c0,3.5-3.6,4.6-5.1,4.6
		c-0.4,0-0.7-0.1-1.1-0.2v2.9c0,1.2,0.3,1.3,1.5,1.3c0.1,0,0.2,0.1,0.2,0.1v0.2c0,0.1-0.1,0.2-0.1,0.2c-0.8,0-1.5-0.1-2.4-0.1
		s-1.5,0.1-2.1,0.1c-0.2,0-0.2,0-0.2-0.2v-0.1c0-0.1,0-0.2,0.1-0.2c1.3-0.1,1.4-0.1,1.4-1.5L49.1,49.8L49.1,49.8z M50.6,53.5
		c0,0.9,0.9,1.2,1.8,1.2c1.9,0,2.9-1.3,2.9-3.2c0-1.5-0.9-3.3-2.8-3.3c-0.7,0-1.2,0.2-1.9,0.6V53.5L50.6,53.5z"/>
	<path class="st0" d="M59.1,50.4C59,50.6,59,50.9,59,51.2c0,1.7,1.2,3.2,2.9,3.2c0.7,0,1.2-0.2,2.1-1l0.4,0.2
		c-0.7,1.2-1.9,2.1-3.3,2.1c-1.9,0-3.4-1.9-3.4-3.8c0-2.2,1.4-4.6,3.8-4.6c1.7,0,2.8,1.2,2.8,2.7v0.6L59.1,50.4L59.1,50.4z
		 M62.3,49.9c0.2,0,0.5-0.3,0.5-0.6c0-0.9-0.7-1.5-1.7-1.5c-1,0-1.9,1.2-2,2.3L62.3,49.9L62.3,49.9z"/>
	<path class="st0" d="M67.8,53.4c0,0.7,0,1.3,1.4,1.3c0.1,0,0.1,0.1,0.1,0.3s0,0.2-0.1,0.2c-0.7,0-1.3,0-2,0c-0.7,0-1.4,0-2.2,0
		c0,0,0,0,0-0.1V55c0-0.1,0-0.2,0.3-0.2c0.8,0,1-0.3,1-1.3v-4c0-0.3-0.2-0.6-0.6-0.7c0,0-0.5-0.1-0.5-0.3s0.1-0.2,0.3-0.3l1.3-0.6
		c0.4-0.2,0.7-0.3,0.7-0.3c0.1,0,0.2,0.1,0.2,0.1l-0.1,2h0.1c0.5-0.7,1.3-2.1,2.5-2.1c0.7,0,1,0.3,1,0.9c0,0.4-0.3,0.7-0.7,0.7
		c-0.5,0-0.6-0.3-1.2-0.3c-0.4,0-1,0.6-1.3,1.1l-0.3,0.3L67.8,53.4L67.8,53.4z"/>
	<path class="st0" d="M84.5,54.6c-1.2,0.6-2.7,1-4.4,1c-3.5,0-7.5-2.6-7.5-6.8c0-4,3.7-6.7,7.5-6.7c1.1,0,3.3,0.5,4.3,1.1l0.2,2.1
		c0.1,0.2,0.1,0.4,0.1,0.5s-0.3,0.1-0.4,0.1c0,0-0.2-0.3-0.4-0.9c-0.5-1.2-2.2-2.2-3.8-2.2c-3.5,0-5.5,2.9-5.5,6.2
		c0,3,2.4,5.9,5.5,5.9c1.1,0,2.5-0.4,3.2-0.9c0.6-0.5,0.8-1.3,1-2c0-0.1,0.2-0.1,0.2-0.1c0.2,0,0.5,0,0.4,0.3L84.5,54.6L84.5,54.6z"
		/>
	<path class="st0" d="M90.2,47.1c2.2,0,4,1.9,4,4.1c0,2.6-2.2,4.3-4.5,4.3c-2.3,0-4-1.9-4-4.1C85.7,49,87.7,47.1,90.2,47.1
		L90.2,47.1z M89.8,47.8c-1.9,0-2.5,1.8-2.5,3.5c0,1.5,0.9,3.7,2.8,3.7c1.8,0,2.5-1.5,2.5-3.2C92.6,50,91.9,47.8,89.8,47.8
		L89.8,47.8z"/>
	<path class="st0" d="M97.1,53.9c0,0.4,0,0.8,1.2,0.8c0.1,0,0.1,0.2,0.1,0.3c0,0.2-0.1,0.2-0.1,0.2c-0.7,0-1.5,0-1.9,0
		c-0.7,0-1.3,0-2.1,0c-0.1,0-0.1,0-0.1-0.1v-0.1c0-0.3,0-0.3,0.3-0.3c0.8,0,1-0.1,1-0.9v-9.9c0-1.1,0-1.2-0.6-1.5
		c-0.3-0.1-0.6-0.2-0.6-0.3c0-0.2,0.2-0.2,0.9-0.5l1.3-0.5c0.1,0,0.3-0.1,0.3-0.1c0.1,0,0.1,0.2,0.1,0.3c0,0.9,0,1.9,0,2.7
		L97.1,53.9L97.1,53.9z"/>
	<path class="st0" d="M101.9,53.9c0,0.4,0,0.8,1.2,0.8c0,0,0,0.2,0,0.3c0,0.2,0,0.2,0,0.2c-0.7,0-1.5,0-2,0c-0.6,0-1.3,0-2,0
		c-0.1,0-0.2,0-0.2-0.1v-0.1c0-0.3,0.1-0.3,0.3-0.3c0.8,0,1.1-0.1,1.1-0.9v-9.9c0-1.1,0-1.2-0.7-1.5c-0.3-0.1-0.5-0.2-0.5-0.3
		c0-0.2,0.2-0.2,0.9-0.5l1.3-0.5c0,0,0.2-0.1,0.3-0.1c0.1,0,0.1,0.2,0.1,0.3c0,0.9,0,1.9,0,2.7V53.9L101.9,53.9z"/>
	<path class="st0" d="M106.9,53.9c0,0.4,0,0.8,1.2,0.8c0,0,0,0.2,0,0.3c0,0.2,0,0.2,0,0.2c-0.7,0-1.5,0-2,0c-0.6,0-1.3,0-2,0
		c-0.1,0-0.2,0-0.2-0.1v-0.1c0-0.3,0.1-0.3,0.3-0.3c0.8,0,1.1-0.1,1.1-0.9V50c0-1.1,0-1.2-0.7-1.4c-0.3-0.1-0.5-0.2-0.5-0.4
		c0-0.1,0.2-0.2,0.9-0.5l1.3-0.4c0,0,0.2-0.1,0.3-0.1s0.1,0.2,0.1,0.3c0,0.8,0,1.8,0,2.6V53.9L106.9,53.9z M106.1,41.7
		c0.6,0,1,0.4,1,1c0,0.5-0.4,1-1,1c-0.5,0-1-0.5-1-1C105,42.1,105.6,41.7,106.1,41.7L106.1,41.7z"/>
	<path class="st0" d="M110.4,49.2c0-0.4-0.2-0.6-0.3-0.6l-0.6-0.1c-0.1-0.1-0.1-0.1-0.1-0.2c0-0.1,0-0.2,0.1-0.2
		c0.9-0.3,2.2-0.9,2.3-0.9c0.1,0,0.1,0.1,0.1,0.2v1.2c0.8-0.6,1.8-1.4,3-1.4c1.5,0,2.3,0.8,2.3,2.4V54c0,0.7,0.6,0.7,1.2,0.7
		c0,0,0,0.1,0,0.2v0.3c0,0,0,0-0.1,0c-0.7,0-1.1,0-1.8,0c-0.7,0-1.3,0-2,0c-0.2,0-0.2-0.3-0.2-0.3c0-0.1,0.1-0.2,0.2-0.2
		c0.3,0,1.1,0,1.1-0.5v-4.3c0-1.1-0.3-1.8-1.7-1.8c-0.7,0-1.6,0.5-2.2,1v4.7c0,0.4,0,0.8,1.2,0.8c0,0,0,0.2,0,0.3c0,0.2,0,0.2,0,0.2
		c-0.7,0-1.5,0-2,0c-0.6,0-1.3,0-2,0c-0.1,0-0.2,0-0.2-0.1v-0.1c0-0.3,0.1-0.3,0.3-0.3c0.8,0,1.1-0.1,1.1-0.9L110.4,49.2L110.4,49.2
		z"/>
	<path class="st0" d="M124.2,49.4h-0.5c-0.2-0.8-0.6-1.7-1.5-1.7c-0.9,0-1.5,0.4-1.5,1.2c0,0.7,0.9,1.1,2,1.7
		c0.9,0.6,1.9,1.2,1.9,2.4c0,1.5-1.4,2.6-2.9,2.6c-1.2,0-2.4-0.5-2.4-0.8l-0.1-1.7l0.5-0.1c0.1,0.1,0.1,0.2,0.1,0.4
		c0.2,0.7,1,1.5,1.9,1.5c0.9,0,1.5-0.5,1.5-1.5c0-0.6-0.8-1.2-1.3-1.4c-1-0.5-2.4-1.1-2.4-2.6c0-1.5,1.3-2.3,2.8-2.3
		c0.7,0,1.4,0.2,2.2,0.5L124.2,49.4L124.2,49.4z"/>
	<path class="st0" d="M128.9,45.5c0.2-0.8,0.3-1.7,0.3-1.8c0-0.5-0.3-0.6-0.7-0.6c-0.3,0-0.6,0.1-0.7,0.1c0,0,0-0.1,0-0.3
		s0-0.3,0.3-0.3c1.6-0.2,2.5-0.2,4-0.2c2,0,3.9,0.8,3.9,3.1c0,2.2-1.6,4.2-3.9,4.2c-0.8,0-1.5-0.1-1.9-0.5l0.3-0.4
		c0.2,0.2,0.6,0.3,1.2,0.3c1.4,0,2.6-2.2,2.6-3.6c0-1.5-1-2.4-2.6-2.4c-0.5,0-0.7,0-0.9,0.4l-2.6,10c-0.1,0.1-0.2,0.6-0.2,0.7
		c0,0.4,0.6,0.5,1.1,0.5h0.2c0.2,0,0.2,0,0.2,0.1s-0.1,0.2-0.1,0.4c-0.1,0-0.2,0-0.4,0c-0.3,0-1.2,0-2.2,0s-1.8,0.1-2,0
		c-0.1,0-0.1,0-0.1-0.1c0-0.2,0-0.4,0.1-0.4c1.1,0,1.4-0.2,1.6-1L128.9,45.5L128.9,45.5z"/>
	<path class="st0" d="M135.5,49.1c0.6-0.6,1.7-2,2.6-2c0.4,0,0.6,0.1,0.6,0.5c0,0.3-0.2,0.9-0.3,1.1l-1.2,3
		c-0.3,0.8-0.5,1.4-0.5,1.5c0,0.2,0.1,0.4,0.3,0.4c0.7,0,3.6-3.9,4.2-4.6c0.5-0.5,0.8-1.2,1.2-1.8c0.1-0.2,0.3-0.2,0.4-0.2
		c0.3,0,0.5,0.2,0.5,0.5c0,0.3-2.2,5.3-2.2,6.1c0,0.2,0.2,0.3,0.3,0.3c0.6,0,1.5-1.3,1.9-1.9c0.2,0,0.4,0.2,0.4,0.3
		c-0.6,0.9-2.4,3.1-3.5,3.1c-0.3,0-0.5-0.3-0.5-0.7c0-0.5,1.3-3.9,1.6-4.6h-0.1c-0.7,0.8-4.7,5.4-5.7,5.4c-0.3,0-0.6-0.3-0.6-0.6
		c0-1.3,2.2-5.5,2.2-6c0-0.2-0.2-0.3-0.3-0.3c-0.2,0-0.8,0.5-1,0.7L135.5,49.1L135.5,49.1z"/>
	<path class="st0" d="M146.1,50.9v0.1c1.1-1.4,3-3.9,4.8-3.9c1,0,1.6,0.8,1.6,1.9c0,2.8-4.3,6.6-6.9,6.6c-0.7,0-1.8-0.3-1.8-1.2
		c0-0.4,1.3-4.4,1.5-5.2c0.1-0.4,1.8-5.9,1.8-6.7c0-0.5-0.4-0.6-1.1-0.6v-0.4c0.8-0.1,2.5-0.5,2.8-0.5c0.1,0,0.2,0,0.3,0.1
		L146.1,50.9L146.1,50.9z M150.2,48.1c-1.2,0-4.8,4.1-4.8,6c0,0.5,0.5,0.7,0.9,0.7c1.6,0,4.8-4.1,4.8-5.8
		C151.1,48.4,150.8,48.1,150.2,48.1L150.2,48.1z"/>
	<path class="st0" d="M155.3,44.2c0.2-0.5,0.3-1.3,0.3-1.5c0-0.5-0.6-0.7-1-0.8l0.1-0.4c0.9-0.1,2.6-0.5,2.8-0.5l0.1,0.1
		c0,0.1-0.1,0.4-0.3,1.1l-2.8,9.6c-0.3,0.8-0.5,1.7-0.5,2c0,0.3,0.2,0.5,0.4,0.5c0.5,0,1.3-1,1.8-1.4h0.1l0.2,0.3l0,0
		c-0.6,0.9-2.2,2.5-3.3,2.5c-0.4,0-0.7-0.3-0.7-0.8c0-0.1,0.1-0.5,0.2-1L155.3,44.2L155.3,44.2z"/>
	<path class="st0" d="M157.6,48.9c0.3-0.6,1.8-1.8,2.5-1.8c0.5,0,0.8,0.2,0.8,0.8c0,0.6-2.1,5.5-2.1,6c0,0.2,0.2,0.3,0.4,0.3
		c0.6,0,1.5-1.2,2-1.7c0,0,0.3,0.2,0.3,0.3c-0.6,0.9-2.1,2.7-3.3,2.7c-0.5,0-0.9-0.2-0.9-0.8c0-0.7,2.1-5.3,2.1-6.1
		c0-0.2-0.1-0.3-0.3-0.3c-0.3,0-0.8,0.5-1.1,0.8L157.6,48.9L157.6,48.9z M161.2,42.1c0.5,0,0.8,0.4,0.8,0.9c0,0.4-0.3,0.8-0.8,0.8
		c-0.5,0-0.8-0.4-0.8-0.8C160.3,42.5,160.6,42.1,161.2,42.1L161.2,42.1z"/>
	<path class="st0" d="M165.8,47.1c0.6,0,1.4,0.2,1.4,0.8c0,0.4-0.2,0.8-0.5,0.8c-0.6,0-0.6-0.9-1.4-0.9c-0.6,0-1.1,0.6-1.1,1.1
		c0,0.8,2.4,2.6,2.4,3.7c0,1.3-1.7,2.9-3,2.9c-0.9,0-1.7-0.1-1.7-1.1c0-0.4,0.3-0.7,0.6-0.7c0.5,0,0.6,0.8,1.5,0.8
		c0.6,0,1.2-0.5,1.2-1.2c0-0.8-2.3-2.5-2.3-3.3C163,48.5,164.2,47.1,165.8,47.1L165.8,47.1z"/>
	<path class="st0" d="M169.5,51.5h0.1c0.9-1.3,2.9-4.3,4.8-4.3c1.2,0,1.5,0.9,1.5,2c0,1.9-2.2,6.5-4.3,6.5c-0.3,0-0.8-0.2-0.8-0.6
		c0-0.4,0.2-0.8,0.7-0.8c0.1,0,0.2,0,0.4,0.1c0.1,0.1,0.2,0.1,0.4,0.1c1.1,0,2.1-4.1,2.1-5.1c0-0.5-0.1-1.1-0.7-1.1
		c-1.3,0-3,2.7-4.2,4.5c-0.8,1.3-0.9,2.2-1.2,2.7c0,0.2-0.2,0.2-0.3,0.2c-0.2,0-0.6-0.2-0.6-0.5c0-0.4,2.1-6.7,2.4-7.8
		c0.1-0.5,1-4,1-4.5c0-0.6-0.3-0.6-1.1-0.7l0.1-0.4c0.7-0.2,1.3-0.2,2-0.4c0.2-0.1,0.5-0.2,0.7-0.2c0.1,0,0.3,0.1,0.3,0.2
		c0,0.2-1.3,4.3-1.5,5.3L169.5,51.5L169.5,51.5z"/>
	<path class="st0" d="M181.2,47.1c1.1,0,2.2,0.3,2.2,1.5c0,2.1-3.5,2.7-5.2,2.8c0,0.4-0.1,0.8-0.1,1.2c0,0.9,0.5,1.9,1.5,1.9
		c0.9,0,1.5-0.4,2.2-1.1c0.1,0.1,0.3,0.2,0.3,0.3c-0.7,1.1-1.8,1.9-3.1,1.9c-1.8,0-2.4-1.2-2.4-2.8
		C176.6,50.4,178.5,47.1,181.2,47.1L181.2,47.1z M181.2,47.6c-1.5,0-2.5,2.2-2.9,3.4c1.3-0.1,3.7-0.7,3.7-2.5
		C182,48.1,181.8,47.6,181.2,47.6L181.2,47.6z"/>
	<path class="st0" d="M187.2,48.6c0,0.4-0.2,1.2-0.4,2.1l0,0c0.7-1,2.1-3.5,3.1-3.5c0.5,0,1,0.3,1,0.8c0,0.5-0.4,0.8-0.9,0.8
		c-0.2,0-0.3,0-0.4-0.1c-0.2-0.2-0.3-0.3-0.3-0.3c-0.6,0-2.2,3.1-2.6,4c-0.2,0.6-0.9,3.2-1.4,3.2c-0.2,0-0.7-0.1-0.7-0.4
		c0-0.1,0.4-1.3,0.9-2.8c0.3-1.1,0.6-2.2,0.6-2.8c0-0.4,0-1-0.7-1c-0.3,0-0.8,0.7-1,1c-0.1,0-0.3-0.1-0.4-0.2
		c0.4-0.7,1.2-2.3,2.2-2.3C186.9,47.1,187.2,48,187.2,48.6L187.2,48.6z"/>
	<path class="st0" d="M194.1,47.1c0.6,0,1.4,0.2,1.4,0.8c0,0.4-0.2,0.8-0.5,0.8c-0.6,0-0.6-0.9-1.4-0.9c-0.6,0-1.1,0.6-1.1,1.1
		c0,0.8,2.4,2.6,2.4,3.7c0,1.3-1.6,2.9-3,2.9c-0.9,0-1.6-0.1-1.6-1.1c0-0.4,0.3-0.7,0.6-0.7c0.5,0,0.6,0.8,1.5,0.8
		c0.6,0,1.2-0.5,1.2-1.2c0-0.8-2.3-2.5-2.3-3.3C191.3,48.5,192.5,47.1,194.1,47.1L194.1,47.1z"/>
</g>
</svg>
