<?xml version="1.0" encoding="utf-8"?>
<!-- Generator: Adobe Illustrator 19.1.0, SVG Export Plug-In . SVG Version: 6.00 Build 0)  -->
<!DOCTYPE svg PUBLIC "-//W3C//DTD SVG 1.1//EN" "http://www.w3.org/Graphics/SVG/1.1/DTD/svg11.dtd">
<svg xmlns="http://www.w3.org/2000/svg" xmlns:xlink="http://www.w3.org/1999/xlink" x="0px" y="0px"
	 width="200px" height="100px" viewBox="0 0 200 100" style="enable-background:new 0 0 200 100;" xml:space="preserve">
<path id="WASHINGTON" style="fill:#020202;" d="M41.6,46.2h2l2.7-13.7l2.5,13.7h2l2.8-19.4h-1.8L49.8,42l-2.8-15.1
	h-1.2l-2.8,15.1l-2.1-15.1h-2L41.6,46.2z M63,46.2h2l-3.4-19.4h-3.1l-3.4,19.4H57l0.8-4.9h4.3L63,46.2z M60,28.5l1.9,11.3h-3.8
	L60,28.5z M72,46.5c2.5,0,4.3-1.5,4.3-4.7v-0.4c0-3.1-1.3-4.4-3.8-6.2c-2.1-1.5-2.8-2.4-2.8-4.3v-0.1c0-1.6,0.8-2.4,2.2-2.4
	c1.4,0,2.2,0.7,2.2,2.6v0.7H76v-0.7c0-2.9-1.5-4.3-4.1-4.3c-2.5,0-4.1,1.5-4.1,4.3V31c0,2.7,1.3,4.1,3.5,5.8
	c2.1,1.6,3.1,2.5,3.1,4.8v0.4c0,1.9-0.8,2.9-2.3,2.9c-1.8,0-2.5-1-2.5-3.2V41h-2v0.7C67.5,44.8,69.1,46.5,72,46.5L72,46.5z
	 M79.9,46.2h2v-8.9h5.1v8.9h2.1V26.9h-2.1v8.7H82v-8.7h-2V46.2z M93.2,46.2h2V26.9h-2V46.2z M99.4,46.2h1.8V30.7l5.2,15.5h2.1V26.9
	h-1.8v14.4l-4.9-14.4h-2.5V46.2z M117.7,38.2h2.5v3.1c0,2.4-0.8,3.5-2.7,3.5c-2.1,0-3.1-1.4-3.1-3.9v-8.7c0-2.6,0.9-3.9,3-3.9
	c1.6,0,2.7,0.8,2.7,3.1v0.2h1.9v-0.2c0-3.5-2-4.8-4.7-4.8c-3.1,0-5,2-5,5.6v8.7c0,3.5,2,5.6,5.1,5.6c3,0,4.8-1.6,4.8-5.2v-4.8h-4.6
	V38.2z M128.1,46.2h2l0-17.7h3.4v-1.6h-8.7v1.6h3.3V46.2z M140.9,46.5c3.1,0,5.1-2,5.1-5.6v-8.7c0-3.5-2-5.6-5.1-5.6
	c-3.1,0-5.1,2-5.1,5.6v8.7C135.9,44.5,137.9,46.5,140.9,46.5L140.9,46.5z M140.9,44.8c-2.1,0-3-1.4-3-3.9v-8.7c0-2.5,1-3.9,3-3.9
	c2,0,3,1.5,3,3.9v8.6C143.9,43.3,142.9,44.8,140.9,44.8L140.9,44.8z M149.8,46.2h1.8V30.7l5.2,15.5h2.1V26.9h-1.8v14.4l-4.9-14.4
	h-2.5V46.2z M1.6,70.9H7c3.6,0,5.6-1.3,5.6-4.9v-1.2c0-2.5-1.3-3.7-3.3-4.1c1.8-0.4,2.9-1.5,2.9-3.5v-1.4c0-3-1.7-4.3-5.2-4.3H1.6
	V70.9z M5.7,67.9v-5.8h0.9c1.3,0,1.9,0.4,1.9,2.2v1.4c0,1.6-0.5,2.2-1.8,2.2H5.7z M5.7,59.3v-4.9h0.9c1.1,0,1.7,0.3,1.7,1.8v1.2
	c0,1.4-0.5,1.9-1.7,1.9H5.7z M22.5,51.5v14.1c0,1.6-0.4,2.2-1.5,2.2c-1.1,0-1.5-0.6-1.5-2.2V51.5h-4.2v14.2c0,3.8,2,5.5,5.6,5.5
	c3.6,0,5.7-1.7,5.7-5.4V51.5H22.5z M34.7,71.2c3.4,0,5.4-1.8,5.4-5.3v-0.4c0-3.8-2-5-4.3-6.4c-1.7-1.1-2.3-1.6-2.3-3V56
	c0-1.1,0.4-1.5,1.2-1.5c0.7,0,1.2,0.4,1.2,1.7v0.6h3.9v-0.6c0-3.4-1.9-5-5.2-5c-3.3,0-5.2,1.8-5.2,5v0.1c0,3.2,1.3,4.6,3.8,6.2
	c1.7,1.1,2.7,1.7,2.7,3.4v0.2c0,1.2-0.4,1.8-1.3,1.8c-1,0-1.4-0.5-1.4-2.1v-0.8h-4v0.6C29.3,69.6,31.4,71.2,34.7,71.2L34.7,71.2z
	 M43.1,70.9h4.2V51.5h-4.2V70.9z M50.5,70.9h3.6v-12l3.8,12h4V51.5h-3.6v10.3L55,51.5h-4.5V70.9z M65.2,70.9h9v-3.3h-4.9v-5.4H73
	v-3.1h-3.6v-4.3h4.6v-3.3h-8.8V70.9z M82,71.2c3.4,0,5.4-1.8,5.4-5.3v-0.4c0-3.8-2-5-4.3-6.4c-1.7-1.1-2.3-1.6-2.3-3V56
	c0-1.1,0.4-1.5,1.2-1.5c0.7,0,1.2,0.4,1.2,1.7v0.6h3.9v-0.6c0-3.4-1.9-5-5.2-5c-3.3,0-5.2,1.8-5.2,5v0.1c0,3.2,1.3,4.6,3.8,6.2
	c1.7,1.1,2.7,1.7,2.7,3.4v0.2c0,1.2-0.4,1.8-1.3,1.8c-1,0-1.4-0.5-1.4-2.1v-0.8h-4v0.6C76.6,69.6,78.7,71.2,82,71.2L82,71.2z
	 M95.1,71.2c3.4,0,5.4-1.8,5.4-5.3v-0.4c0-3.8-2-5-4.3-6.4c-1.7-1.1-2.3-1.6-2.3-3V56c0-1.1,0.4-1.5,1.2-1.5c0.7,0,1.2,0.4,1.2,1.7
	v0.6h3.9v-0.6c0-3.4-1.9-5-5.2-5c-3.3,0-5.2,1.8-5.2,5v0.1c0,3.2,1.3,4.6,3.8,6.2c1.7,1.1,2.7,1.7,2.7,3.4v0.2
	c0,1.2-0.4,1.8-1.3,1.8c-1,0-1.4-0.5-1.4-2.1v-0.8h-4v0.6C89.7,69.6,91.8,71.2,95.1,71.2L95.1,71.2z M109.4,71
	c3.2,0,4.9-1.8,4.9-5.1V51.5h-4.2v14.2c0,1.4-0.6,1.8-1.7,1.8c-0.6,0-0.9-0.1-1.3-0.2v3.3C107.6,70.8,108.3,71,109.4,71L109.4,71z
	 M123.1,71.2c3.6,0,5.9-1.9,5.9-5.9V57c0-4.1-2.4-5.8-5.9-5.8c-3.4,0-5.9,1.8-5.9,5.8v8.3C117.2,69.4,119.5,71.2,123.1,71.2
	L123.1,71.2z M123.1,67.8c-1.1,0-1.7-0.7-1.7-2.5V57c0-1.7,0.5-2.4,1.7-2.4c1.1,0,1.7,0.8,1.7,2.4v8.3
	C124.8,67.1,124.2,67.8,123.1,67.8L123.1,67.8z M139.2,51.5v14.1c0,1.6-0.4,2.2-1.5,2.2c-1.1,0-1.5-0.6-1.5-2.2V51.5h-4.2v14.2
	c0,3.8,2,5.5,5.6,5.5c3.6,0,5.7-1.7,5.7-5.4V51.5H139.2z M146.5,70.9h4.2v-8.1h0.8l2.1,8.1h4.3l-2.5-8.7c1.3-0.6,2-1.7,2-3.8v-2
	c0-3.2-1.5-4.8-5.6-4.8h-5.3V70.9z M150.7,60.1v-5.4h1c1.2,0,1.7,0.5,1.7,1.8v1.8c0,1.4-0.5,1.9-1.7,1.9H150.7z M160.5,70.9h3.6v-12
	l3.8,12h4V51.5h-3.6v10.3L165,51.5h-4.5V70.9z M182.2,70.9h4.2l-3.1-19.4h-6l-3.1,19.4h3.8l0.5-4h3L182.2,70.9z M180.1,55.2l1.1,8.8
	H179L180.1,55.2z M188.9,70.9h8.5v-3.3H193v-16h-4.2V70.9z"/>
</svg>
