<?xml version="1.0" encoding="utf-8"?>
<!-- Generator: Adobe Illustrator 19.1.0, SVG Export Plug-In . SVG Version: 6.00 Build 0)  -->
<!DOCTYPE svg PUBLIC "-//W3C//DTD SVG 1.1//EN" "http://www.w3.org/Graphics/SVG/1.1/DTD/svg11.dtd">
<svg version="1.1" id="Laag_1" xmlns="http://www.w3.org/2000/svg" xmlns:xlink="http://www.w3.org/1999/xlink" x="0px" y="0px"
	 width="200px" height="100px" viewBox="395.6 -0.2 200 100" style="enable-background:new 395.6 -0.2 200 100;"
	 xml:space="preserve">
<style type="text/css">
	.st0{fill:#010101;}
</style>
<g>
	<path class="st0" d="M477.4,22.1c-0.5,0-0.8,0.3-0.8,0.7c0,0.4,0.4,0.7,0.8,0.7h12.4c0.5,0,0.8-0.3,0.8-0.7c0-0.4-0.4-0.7-0.8-0.7
		C489.8,22.1,477.4,22.1,477.4,22.1z"/>
	<path class="st0" d="M477.4,24.1c-0.5,0-0.8,0.3-0.8,0.7c0,0.4,0.4,0.7,0.8,0.7h4.1c0.5,0,0.8-0.3,0.8-0.7c0-0.4-0.4-0.7-0.8-0.7
		H477.4z"/>
	<path class="st0" d="M487.8,24.1c-0.5,0-0.8,0.3-0.8,0.7c0,0.4,0.4,0.7,0.8,0.7h4.1c0.5,0,0.8-0.3,0.8-0.7c0-0.4-0.4-0.7-0.8-0.7
		H487.8z"/>
	<path class="st0" d="M477.4,26.2c-0.5,0-0.8,0.3-0.8,0.7c0,0.4,0.4,0.7,0.8,0.7h4.1c0.5,0,0.8-0.3,0.8-0.7c0-0.4-0.4-0.7-0.8-0.7
		H477.4z"/>
	<path class="st0" d="M487.8,26.2c-0.5,0-0.8,0.3-0.8,0.7c0,0.4,0.4,0.7,0.8,0.7h4.1c0.5,0,0.8-0.3,0.8-0.7c0-0.4-0.4-0.7-0.8-0.7
		H487.8z"/>
	<path class="st0" d="M477.4,28.3c-0.5,0-0.8,0.3-0.8,0.7s0.4,0.7,0.8,0.7h4.1c0.5,0,0.8-0.3,0.8-0.7c0-0.4-0.4-0.7-0.8-0.7H477.4z"
		/>
	<path class="st0" d="M487.8,28.3c-0.5,0-0.8,0.3-0.8,0.7s0.4,0.7,0.8,0.7h4.1c0.5,0,0.8-0.3,0.8-0.7c0-0.4-0.4-0.7-0.8-0.7H487.8z"
		/>
	<path class="st0" d="M477.4,30.4c-0.5,0-0.8,0.3-0.8,0.7c0,0.4,0.4,0.7,0.8,0.7h4.1c0.5,0,0.8-0.3,0.8-0.7c0-0.4-0.4-0.7-0.8-0.7
		H477.4z"/>
	<path class="st0" d="M487.8,30.4c-0.5,0-0.8,0.3-0.8,0.7c0,0.4,0.4,0.7,0.8,0.7h4.1c0.5,0,0.8-0.3,0.8-0.7c0-0.4-0.4-0.7-0.8-0.7
		H487.8z"/>
	<path class="st0" d="M477.4,32.4c-0.5,0-0.8,0.3-0.8,0.7s0.4,0.7,0.8,0.7h4.1c0.5,0,0.8-0.3,0.8-0.7s-0.4-0.7-0.8-0.7H477.4z"/>
	<path class="st0" d="M487.8,32.4c-0.5,0-0.8,0.3-0.8,0.7s0.4,0.7,0.8,0.7h4.1c0.5,0,0.8-0.3,0.8-0.7s-0.4-0.7-0.8-0.7H487.8z"/>
	<path class="st0" d="M477.4,34.5c-0.5,0-0.8,0.3-0.8,0.7c0,0.4,0.4,0.7,0.8,0.7h4.1c0.5,0,0.8-0.3,0.8-0.7c0-0.4-0.4-0.7-0.8-0.7
		H477.4z"/>
	<path class="st0" d="M487.8,34.5c-0.5,0-0.8,0.3-0.8,0.7c0,0.4,0.4,0.7,0.8,0.7h4.1c0.5,0,0.8-0.3,0.8-0.7c0-0.4-0.4-0.7-0.8-0.7
		H487.8z"/>
	<path class="st0" d="M479.5,36.6c-0.5,0-0.8,0.3-0.8,0.7c0,0.4,0.4,0.7,0.8,0.7h10.4c0.5,0,0.8-0.3,0.8-0.7c0-0.4-0.4-0.7-0.8-0.7
		H479.5z"/>
	<path class="st0" d="M477.4,20c-0.5,0-0.8,0.3-0.8,0.7c0,0.4,0.4,0.7,0.8,0.7h2.1c0.5,0,0.8-0.3,0.8-0.7c0-0.4-0.4-0.7-0.8-0.7
		C479.5,20,477.4,20,477.4,20z"/>
	<path class="st0" d="M477.4,17.9c-0.5,0-0.8,0.3-0.8,0.7c0,0.4,0.4,0.7,0.8,0.7h2.1c0.5,0,0.8-0.3,0.8-0.7c0-0.4-0.4-0.7-0.8-0.7
		C479.5,17.9,477.4,17.9,477.4,17.9z"/>
	<path class="st0" d="M458.7,24.1c-0.5,0-0.8,0.3-0.8,0.7c0,0.4,0.4,0.7,0.8,0.7h4.1c0.5,0,0.8-0.3,0.8-0.7c0-0.4-0.4-0.7-0.8-0.7
		H458.7z"/>
	<path class="st0" d="M458.7,26.2c-0.5,0-0.8,0.3-0.8,0.7c0,0.4,0.4,0.7,0.8,0.7h4.1c0.5,0,0.8-0.3,0.8-0.7c0-0.4-0.4-0.7-0.8-0.7
		H458.7z"/>
	<path class="st0" d="M458.7,28.3c-0.5,0-0.8,0.3-0.8,0.7s0.4,0.7,0.8,0.7h12.4c0.5,0,0.8-0.3,0.8-0.7c0-0.4-0.4-0.7-0.8-0.7H458.7z
		"/>
	<path class="st0" d="M458.7,30.4c-0.5,0-0.8,0.3-0.8,0.7c0,0.4,0.4,0.7,0.8,0.7h6.2c0.5,0,0.8-0.3,0.8-0.7c0-0.4-0.4-0.7-0.8-0.7
		H458.7z"/>
	<path class="st0" d="M458.7,32.4c-0.5,0-0.8,0.3-0.8,0.7s0.4,0.7,0.8,0.7h4.1c0.5,0,0.8-0.3,0.8-0.7s-0.4-0.7-0.8-0.7H458.7z"/>
	<path class="st0" d="M458.7,34.5c-0.5,0-0.8,0.3-0.8,0.7c0,0.4,0.4,0.7,0.8,0.7h4.1c0.5,0,0.8-0.3,0.8-0.7c0-0.4-0.4-0.7-0.8-0.7
		H458.7z"/>
	<path class="st0" d="M469.1,34.5c-0.5,0-0.8,0.3-0.8,0.7c0,0.4,0.4,0.7,0.8,0.7h4.1c0.5,0,0.8-0.3,0.8-0.7c0-0.4-0.4-0.7-0.8-0.7
		H469.1z"/>
	<path class="st0" d="M460.8,36.6c-0.5,0-0.8,0.3-0.8,0.7c0,0.4,0.4,0.7,0.8,0.7h10.4c0.5,0,0.8-0.3,0.8-0.7c0-0.4-0.4-0.7-0.8-0.7
		H460.8z"/>
	<path class="st0" d="M460.8,22.1c-0.5,0-0.8,0.3-0.8,0.7c0,0.4,0.4,0.7,0.8,0.7h10.4c0.5,0,0.8-0.3,0.8-0.7c0-0.4-0.4-0.7-0.8-0.7
		C471.1,22.1,460.8,22.1,460.8,22.1z"/>
	<path class="st0" d="M469,24.1c-0.5,0-0.8,0.3-0.8,0.7c0,0.4,0.4,0.7,0.8,0.7h4.1c0.5,0,0.8-0.3,0.8-0.7c0-0.4-0.4-0.7-0.8-0.7H469
		z"/>
	<path class="st0" d="M471.1,26.2c-0.5,0-0.8,0.3-0.8,0.7c0,0.4,0.4,0.7,0.8,0.7h2.1c0.5,0,0.8-0.3,0.8-0.7c0-0.4-0.4-0.7-0.8-0.7
		H471.1z"/>
	<path class="st0" d="M471.1,32.4c-0.5,0-0.8,0.3-0.8,0.7s0.4,0.7,0.8,0.7h2.1c0.5,0,0.8-0.3,0.8-0.7s-0.4-0.7-0.8-0.7H471.1z"/>
	<path class="st0" d="M450.5,24.1c-0.5,0-0.8,0.3-0.8,0.7c0,0.4,0.4,0.7,0.8,0.7h4.1c0.5,0,0.8-0.3,0.8-0.7c0-0.4-0.4-0.7-0.8-0.7
		H450.5z"/>
	<path class="st0" d="M450.5,26.2c-0.5,0-0.8,0.3-0.8,0.7c0,0.4,0.4,0.7,0.8,0.7h4.1c0.5,0,0.8-0.3,0.8-0.7c0-0.4-0.4-0.7-0.8-0.7
		H450.5z"/>
	<path class="st0" d="M450.5,30.4c-0.5,0-0.8,0.3-0.8,0.7c0,0.4,0.4,0.7,0.8,0.7h4.1c0.5,0,0.8-0.3,0.8-0.7c0-0.4-0.4-0.7-0.8-0.7
		H450.5z"/>
	<path class="st0" d="M450.5,32.4c-0.5,0-0.8,0.3-0.8,0.7s0.4,0.7,0.8,0.7h4.1c0.5,0,0.8-0.3,0.8-0.7s-0.4-0.7-0.8-0.7H450.5z"/>
	<path class="st0" d="M450.5,34.5c-0.5,0-0.8,0.3-0.8,0.7c0,0.4,0.4,0.7,0.8,0.7h4.1c0.5,0,0.8-0.3,0.8-0.7c0-0.4-0.4-0.7-0.8-0.7
		H450.5z"/>
	<path class="st0" d="M450.5,28.3c-0.5,0-0.8,0.3-0.8,0.7s0.4,0.7,0.8,0.7h4.1c0.5,0,0.8-0.3,0.8-0.7c0-0.4-0.4-0.7-0.8-0.7H450.5z"
		/>
	<path class="st0" d="M450.5,22.1c-0.5,0-0.8,0.3-0.8,0.7c0,0.4,0.4,0.7,0.8,0.7h4.1c0.5,0,0.8-0.3,0.8-0.7c0-0.4-0.4-0.7-0.8-0.7
		C454.6,22.1,450.5,22.1,450.5,22.1z"/>
	<path class="st0" d="M446.4,36.6c-0.5,0-0.8,0.3-0.8,0.7c0,0.4,0.4,0.7,0.8,0.7h6.2c0.5,0,0.8-0.3,0.8-0.7c0-0.4-0.4-0.7-0.8-0.7
		H446.4z"/>
	<path class="st0" d="M442.2,24.1c-0.5,0-0.8,0.3-0.8,0.7c0,0.4,0.4,0.7,0.8,0.7h4.1c0.5,0,0.8-0.3,0.8-0.7c0-0.4-0.4-0.7-0.8-0.7
		H442.2z"/>
	<path class="st0" d="M442.2,26.2c-0.5,0-0.8,0.3-0.8,0.7c0,0.4,0.4,0.7,0.8,0.7h4.1c0.5,0,0.8-0.3,0.8-0.7c0-0.4-0.4-0.7-0.8-0.7
		H442.2z"/>
	<path class="st0" d="M442.2,30.4c-0.5,0-0.8,0.3-0.8,0.7c0,0.4,0.4,0.7,0.8,0.7h4.1c0.5,0,0.8-0.3,0.8-0.7c0-0.4-0.4-0.7-0.8-0.7
		H442.2z"/>
	<path class="st0" d="M442.2,32.4c-0.5,0-0.8,0.3-0.8,0.7s0.4,0.7,0.8,0.7h4.1c0.5,0,0.8-0.3,0.8-0.7s-0.4-0.7-0.8-0.7H442.2z"/>
	<path class="st0" d="M442.2,34.5c-0.5,0-0.8,0.3-0.8,0.7c0,0.4,0.4,0.7,0.8,0.7h4.1c0.5,0,0.8-0.3,0.8-0.7c0-0.4-0.4-0.7-0.8-0.7
		H442.2z"/>
	<path class="st0" d="M442.2,28.3c-0.5,0-0.8,0.3-0.8,0.7s0.4,0.7,0.8,0.7h4.1c0.5,0,0.8-0.3,0.8-0.7c0-0.4-0.4-0.7-0.8-0.7H442.2z"
		/>
	<path class="st0" d="M442.2,22.1c-0.5,0-0.8,0.3-0.8,0.7c0,0.4,0.4,0.7,0.8,0.7h4.1c0.5,0,0.8-0.3,0.8-0.7c0-0.4-0.4-0.7-0.8-0.7
		C446.3,22.1,442.2,22.1,442.2,22.1z"/>
	<path class="st0" d="M433.9,24.1c-0.5,0-0.8,0.3-0.8,0.7c0,0.4,0.4,0.7,0.8,0.7h4.1c0.5,0,0.8-0.3,0.8-0.7c0-0.4-0.4-0.7-0.8-0.7
		H433.9z"/>
	<path class="st0" d="M433.9,26.2c-0.5,0-0.8,0.3-0.8,0.7c0,0.4,0.4,0.7,0.8,0.7h4.1c0.5,0,0.8-0.3,0.8-0.7c0-0.4-0.4-0.7-0.8-0.7
		H433.9z"/>
	<path class="st0" d="M433.9,30.4c-0.5,0-0.8,0.3-0.8,0.7c0,0.4,0.4,0.7,0.8,0.7h4.1c0.5,0,0.8-0.3,0.8-0.7c0-0.4-0.4-0.7-0.8-0.7
		H433.9z"/>
	<path class="st0" d="M433.9,32.4c-0.5,0-0.8,0.3-0.8,0.7s0.4,0.7,0.8,0.7h4.1c0.5,0,0.8-0.3,0.8-0.7s-0.4-0.7-0.8-0.7H433.9z"/>
	<path class="st0" d="M433.9,34.5c-0.5,0-0.8,0.3-0.8,0.7c0,0.4,0.4,0.7,0.8,0.7h4.1c0.5,0,0.8-0.3,0.8-0.7c0-0.4-0.4-0.7-0.8-0.7
		H433.9z"/>
	<path class="st0" d="M433.9,28.3c-0.5,0-0.8,0.3-0.8,0.7s0.4,0.7,0.8,0.7h4.1c0.5,0,0.8-0.3,0.8-0.7c0-0.4-0.4-0.7-0.8-0.7H433.9z"
		/>
	<path class="st0" d="M433.9,22.1c-0.5,0-0.8,0.3-0.8,0.7c0,0.4,0.4,0.7,0.8,0.7h4.1c0.5,0,0.8-0.3,0.8-0.7c0-0.4-0.4-0.7-0.8-0.7
		C438,22.1,433.9,22.1,433.9,22.1z"/>
	<path class="st0" d="M436,36.6c-0.5,0-0.8,0.3-0.8,0.7c0,0.4,0.4,0.7,0.8,0.7h6.2c0.5,0,0.8-0.3,0.8-0.7c0-0.4-0.4-0.7-0.8-0.7H436
		z"/>
	<path class="st0" d="M448.5,51.2h-10.9c0.2-2.4,1.8-6,5.8-6C447.5,45.2,448.5,49,448.5,51.2 M420.9,56.3c0,0.7-0.1,1.5-0.2,2.1
		c-0.6,2.6-2.7,4.4-5.4,4.4c-3.8,0-6.3-3.1-6.3-8.1c0-4.7,2.1-8.4,6.3-8.4c2.8,0,4.9,2,5.4,4.5c0.1,0.6,0.1,1.2,0.1,1.7L420.9,56.3
		L420.9,56.3z M465,47.9c0-1.5,1.3-2.4,3.5-2.4c2.5,0,5.1,1,6.4,1.7l1.6-6.3c-1.8-0.9-4.9-1.7-8.3-1.7c-7.1,0-11.6,3.9-12,9.1
		c-1.5-5.1-5.3-9.2-12.4-9.2c-7.4,0-11.9,4.3-13.8,9.6V26.4h-9.2v16h-0.1c-1.3-2-4.1-3.3-7.8-3.3c-7.1,0-13.3,5.8-13.3,15.7
		c0,9.2,5.6,15.2,12.7,15.2c3.8,0,7.4-1.7,9.3-5h0.2l0.4,4.3h8.2c-0.1-1.8-0.2-4.9-0.2-8c2.1,5.4,7.2,8.6,14.6,8.6
		c4,0,7.7-0.6,10.7-1.9l-1.2-6.2c-2.5,0.8-5,1.3-8.2,1.3c-4.3,0-8.1-1.8-8.3-5.7l19.1,0.1c0.1-0.7,0.3-2.1,0.3-3.7
		c0-0.6-0.1-1.2-0.1-1.8c1.1,2.3,3.5,4.3,7.7,5.7c3.4,1.2,4.3,1.9,4.3,3.5c0,1.5-1.2,2.4-3.9,2.4c-2.7,0-6.2-1.2-7.9-2.2l-1.6,6.5
		c2.2,1.2,5.7,2.1,9.5,2.1c8.5,0,12.8-4,12.8-9.6c-0.1-4.3-2.4-7.2-8-9.1C466.2,50.1,465,49.4,465,47.9 M478.2,69.4h9.2V39.8h-9.2
		V69.4z M508.3,56.2c0,0.8-0.1,1.7-0.3,2.5c-0.6,2.1-2.5,3.7-4.9,3.7c-3.8,0-6-3.5-6-7.9c0-5.4,2.7-8.4,6.1-8.4c2.6,0,4.3,1.7,5,4
		c0.1,0.6,0.2,1.2,0.2,1.7V56.2z M517.5,48.7c0-4.4,0.1-6.9,0.2-8.8h-8l-0.3,3.5h-0.1c-1.5-2.4-4-4.2-8.1-4.2
		c-7.3,0-13.4,6.1-13.4,15.6c0,8.5,5.2,14.4,12.5,14.4c3.4,0,6.2-1.4,8-3.8h0.1v1.9c0,5.5-3.3,7.8-7.7,7.8c-3.5,0-6.7-1.2-8.6-2.2
		l-1.8,7c2.7,1.5,6.7,2.2,10.6,2.2c4.4,0,8.8-0.8,12-3.6c3.4-3,4.5-7.6,4.5-13.3L517.5,48.7L517.5,48.7z M565.4,51.2h-10.9
		c0.2-2.4,1.8-6,5.8-6C564.4,45.2,565.4,49,565.4,51.2 M573.6,57.6c0.1-0.7,0.3-2.1,0.3-3.7c0-7.3-3.6-14.8-13.2-14.8
		c-7.8,0-12.4,4.9-14.1,10.5c-0.7-7.1-5-10.5-10.4-10.5c-5,0-7.9,2.8-9.1,4.8h-0.2l-0.4-4.1h-8c0.1,2.7,0.2,5.8,0.2,9.4v20.2h9.2
		V52.4c0-0.8,0.1-1.7,0.3-2.3c0.7-1.7,2.2-3.5,4.7-3.5c3.3,0,4.7,2.6,4.7,6.4v16.4h9.2v-8.6c2,5.8,7.2,9.2,14.8,9.2
		c4,0,7.7-0.6,10.7-1.9l-1.2-6.2c-2.5,0.8-5,1.3-8.2,1.3c-4.3,0-8.1-1.8-8.3-5.7L573.6,57.6z M592.3,48v-8.6
		c-0.7-0.1-1.1-0.2-1.9-0.2c-2.9,0-6.5,1.8-8,6.2h-0.2l-0.4-5.5H574c0.2,2.6,0.2,5.4,0.2,9.7l-0.1,19.8h9.2V54.4
		c0-0.8,0.1-1.5,0.2-2.1c0.6-2.9,2.9-4.7,6.3-4.7C590.8,47.8,591.6,47.8,592.3,48"/>
</g>
</svg>
