<svg id="Layer_1" xmlns="http://www.w3.org/2000/svg" viewBox="0 0 200 100">
  <style>
    .st0{fill:#252525;} .st1{fill:#FFFFFF;}
  </style>
  <path class="st0" d="M27.8 53.8c-2.1 0-2.6-.5-3.2-2.7l-3.8-13.3c-.1-.5-.2-1-.2-1.3 0-1.4 1.1-2.5 2.4-2.5 1.3 0 2.1.8 2.5 2.3l2.7 11.2 2.2-10.9c.4-2.1 1.2-2.7 3.1-2.7 1.9 0 2.7.5 3.1 2.7L39 47.7l2.7-11.3c.4-1.5 1.3-2.3 2.4-2.3 1.5 0 2.4.9 2.4 2.3 0 .4-.1.9-.3 1.4l-3.8 13.4c-.7 2.3-1.2 2.7-3.2 2.7s-2.6-.5-3.1-2.7l-2.6-11.3L31 51.2c-.5 2.2-1.1 2.6-3.2 2.6"/>
  <path class="st0" d="M36 65.9H10.7c-1.7 0-3.1-1.3-3.1-3V41.4c0-1.6 1.4-3 3.1-3H36c1.7 0 3.1 1.3 3.1 3V63c0 1.6-1.4 2.9-3.1 2.9z"/>
  <path class="st1" d="M27.7 53.8c-2.1 0-2.6-.5-3.2-2.7L21 38.5h5.1l2.2 9.1 1.9-9.1c4.4 0 6.3-.1 7 .2l1.9 9v6.2c-2 0-2.4-.5-2.9-2.7l-2.6-11.3-2.5 11.3c-.6 2.2-1.2 2.6-3.4 2.6"/>
  <g>
    <path class="st0" d="M66.8 47.5l-3.2 11.3h-1.8L59 50.6l-2.7 8.2h-1.9L51 47.5h2.2l2.3 8 2.5-8h2l2.6 8.1 2.3-8.1h1.9zM68.4 58.7V47.5h6.5v1.9h-4.5v2.8h4.1V54h-4.1v2.9h4.7v1.9h-6.7zM77.7 58.7V47.5c1-.1 2.1-.1 3.2-.1.7 0 1.2.1 1.7.2s.9.3 1.2.6c.3.3.5.6.6.9.1.3.2.7.2 1.1 0 1.2-.5 2.1-1.6 2.6.6.1 1.1.4 1.4.9.4.4.5 1 .5 1.7 0 .6-.1 1.1-.3 1.5-.2.4-.5.8-.9 1.1-.4.3-.8.5-1.3.6-.5.1-1.1.2-1.7.2-1.2 0-2.3 0-3-.1zm3.2-9.4h-1.2v2.8H81c.5 0 .9-.1 1.2-.4.3-.3.5-.6.5-1.1 0-.5-.2-.8-.5-1-.3-.2-.8-.3-1.3-.3zm.2 4.6h-1.4v3c.4.1.8.1 1.3.1.7 0 1.2-.1 1.5-.4s.5-.7.5-1.2-.2-.8-.5-1.1c-.3-.3-.8-.4-1.4-.4zM86.4 58.7l4.9-11.4h.7l4.9 11.4H96l-1.6-3.8H89l-1.6 3.8h-1zm2.9-4.6H94l-2.3-5.5-2.4 5.5zM96.7 47.5h1l2.9 9.7 3.2-9.7h.8l3.3 9.7 2.8-9.7h.9l-3.3 11.3h-.8l-3.4-9.8-3.3 9.8h-.8l-3.3-11.3zM111.5 58.7l4.9-11.4h.7l4.9 11.4h-.9l-1.6-3.8H114l-1.6 3.8h-.9zm2.9-4.6h4.7l-2.3-5.5-2.4 5.5zM124.2 58.7V47.5h2.7c.6 0 1.1.1 1.6.2s.8.3 1.1.5c.3.2.5.4.7.7.2.3.3.6.4.9.1.3.1.6.1 1 0 .8-.3 1.5-.8 2-.5.6-1.1.9-1.9 1.1l3.9 4.9h-1l-3.8-4.7H125v4.7h-.8zm.9-5.5h2c.5 0 .9-.1 1.4-.3.4-.2.8-.5 1.1-.9.3-.4.4-.8.4-1.3 0-.7-.2-1.3-.7-1.8s-1.3-.6-2.3-.6h-1.8v4.9zM134.3 58.7V47.5h2.9c.9 0 1.7.1 2.4.3s1.3.5 1.8.8c.5.3.9.7 1.2 1.2.3.5.6 1 .7 1.5.1.5.2 1.1.2 1.7 0 .7-.1 1.3-.3 1.8-.2.6-.4 1.1-.8 1.6s-.8.9-1.3 1.3-1.1.6-1.8.8c-.7.2-1.5.3-2.3.3h-2.7zm.9-.8h1.9c.9 0 1.7-.1 2.4-.4.7-.3 1.3-.6 1.7-1.1.4-.5.8-1 1-1.6.2-.6.4-1.3.4-2s-.1-1.3-.3-1.8-.5-1.1-1-1.5c-.4-.4-1-.8-1.7-1-.7-.2-1.5-.4-2.4-.4h-2v9.8zM145.3 57.3l.5-.6c.3.4.8.8 1.3 1 .5.2 1.1.4 1.6.4s.9-.1 1.3-.2.7-.4 1-.7c.3-.3.4-.7.4-1.2 0-.3-.1-.6-.2-.9-.1-.3-.3-.5-.5-.7-.2-.2-.5-.3-.8-.5-.3-.1-.6-.3-.9-.4-.3-.1-.6-.3-1-.4-.3-.1-.6-.3-.9-.5-.3-.2-.5-.4-.8-.6-.2-.2-.4-.5-.5-.8-.1-.3-.2-.7-.2-1.1 0-.8.3-1.5.9-2 .6-.5 1.4-.8 2.4-.8.6 0 1.2.1 1.7.3.5.2 1 .5 1.3.8l-.5.7c-.6-.6-1.5-1-2.5-1-.7 0-1.3.2-1.8.5s-.6.8-.6 1.4c0 .3.1.6.2.9.1.3.3.5.5.7.2.2.5.3.8.5.3.1.6.3.9.4s.6.2 1 .4c.3.1.6.3.9.5.3.2.5.4.8.6.2.2.4.5.5.8.1.3.2.7.2 1.1 0 .9-.3 1.6-1 2.1s-1.5.8-2.6.8c-.7 0-1.4-.1-2.1-.4-.6-.3-1-.7-1.3-1.1zM157.8 58.7V58l.7-.7.7-.7c.4-.4.6-.6.8-.9.2-.2.4-.5.8-.9.3-.4.6-.7.8-.9l.6-.9c.2-.4.4-.7.5-1l.3-.9c.1-.3.1-.6.1-.9 0-.6-.2-1.1-.6-1.5s-.9-.6-1.6-.6c-.3 0-.7.1-1 .2-.3.1-.6.4-.8.7-.3.3-.4.7-.5 1.2l-.7-.3c.1-.5.3-1 .6-1.4s.7-.7 1.1-.9c.4-.2.9-.3 1.4-.3.5 0 .9.1 1.3.2s.7.4.9.6c.2.3.4.6.5.9.1.3.2.7.2 1 0 .4-.1.9-.2 1.4s-.4 1-.6 1.4-.5.9-.9 1.4-.7.9-1 1.2-.6.7-1 1.1l-.8.8c-.2.2-.4.3-.6.5h5.6v.8h-6.6zM166.6 53.1c0-.9.1-1.6.2-2.3s.3-1.3.6-1.8.7-.9 1.1-1.2c.5-.3 1-.4 1.6-.4s1.2.1 1.6.4c.5.3.8.7 1.1 1.2s.5 1.1.6 1.8c.1.7.2 1.5.2 2.3 0 .9-.1 1.6-.2 2.3-.1.7-.3 1.3-.6 1.8s-.6.9-1.1 1.2-1 .4-1.6.4c-.8 0-1.5-.3-2-.8s-.9-1.2-1.2-2-.3-1.8-.3-2.9zm.9 0c0 .8.1 1.5.2 2.1.1.6.3 1.1.5 1.6s.5.8.8 1c.3.2.8.4 1.2.4.5 0 .9-.1 1.2-.3.3-.2.6-.6.8-1 .2-.4.4-1 .4-1.6.1-.6.1-1.3.1-2.1 0-3.3-.9-5-2.7-5-1.7-.1-2.5 1.6-2.5 4.9zM175.5 49.4l2.6-2h.6v11.4h-.8V48.6l-1.8 1.5-.6-.7zM181.8 53.1c0-.9.1-1.6.2-2.3s.3-1.3.6-1.8.7-.9 1.1-1.2c.5-.3 1-.4 1.6-.4.6 0 1.2.1 1.6.4.5.3.8.7 1.1 1.2s.5 1.1.6 1.8.2 1.5.2 2.3c0 .9-.1 1.6-.2 2.3-.1.7-.3 1.3-.6 1.8s-.6.9-1.1 1.2-1 .4-1.6.4c-.8 0-1.5-.3-2-.8s-.9-1.2-1.2-2c-.2-.8-.3-1.8-.3-2.9zm.9 0c0 .8.1 1.5.2 2.1.1.6.3 1.1.5 1.6.2.4.5.8.8 1 .3.2.8.4 1.2.4.5 0 .9-.1 1.2-.3.3-.2.6-.6.8-1 .2-.4.4-1 .4-1.6.1-.6.1-1.3.1-2.1 0-3.3-.9-5-2.7-5-1.7-.1-2.5 1.6-2.5 4.9z"/>
  </g>
</svg>