<svg xmlns="http://www.w3.org/2000/svg" preserveAspectRatio="xMidYMid" width="21.219" height="28" viewBox="0 0 21.219 28"><defs><style>.cls-1 { fill: #ebebeb; fill-rule: evenodd; }</style></defs><path d="M20.824 14.676c.02.073.037.147.056.22.084.33.152.664.205 1.005.016.107.035.212.048.32.05.42.086.846.086 1.28 0 5.8-4.702 10.5-10.5 10.5-.02 0-.037-.003-.055-.003-.018 0-.036.003-.055.003-.07 0-.136-.015-.206-.016-.346-.01-.688-.036-1.025-.08-3.97-.457-7.27-3.063-8.66-6.63l.172-.1C.464 20.027.22 18.793.22 17.5c0-.992.146-1.947.403-2.857l-.176-.11C1.2 12.01 2.877 9.882 5.1 8.54 7.313 6.61 10.617 3.197 10.612 0c-.006 3.147 3.193 6.5 5.405 8.445 2.32 1.36 4.067 3.582 4.807 6.23z" class="cls-1"/></svg>