<?xml version="1.0" encoding="UTF-8" standalone="no"?>
<svg width="32px" height="31px" viewBox="0 0 32 31" version="1.1" xmlns="http://www.w3.org/2000/svg" xmlns:xlink="http://www.w3.org/1999/xlink" xmlns:sketch="http://www.bohemiancoding.com/sketch/ns">
    <!-- Generator: Sketch 3.4.2 (15857) - http://www.bohemiancoding.com/sketch -->
    <title>cms</title>
    <desc>Created with Sketch.</desc>
    <defs></defs>
    <g id="Page-1" stroke="none" stroke-width="1" fill="none" fill-rule="evenodd" sketch:type="MSPage">
        <g id="Carousel30-Icons" sketch:type="MSArtboardGroup" transform="translate(-364.000000, -20.000000)" fill="#66B877">
            <path d="M388.60953,38.1000759 C387.603804,38.6053174 386.483956,38.9168011 385.298974,38.9855382 L385.298974,41 L384.298974,41 L384.298974,38.9855382 C383.113993,38.9168011 381.994144,38.6053174 380.988419,38.1000759 L379.981987,39.8432667 L379.115962,39.3432667 L380.122848,37.5992876 C379.160472,36.9641136 378.334861,36.1385023 377.699687,35.1761259 L375.955708,36.1830127 L375.455708,35.3169873 L377.198898,34.3105556 C376.693657,33.3048299 376.382173,32.1849817 376.313436,31 L374.298974,31 L374.298974,30 L376.313436,30 C376.382173,28.8150183 376.693657,27.6951701 377.198898,26.6894444 L375.455708,25.6830127 L375.955708,24.8169873 L377.699687,25.8238741 C378.334861,24.8614977 379.160472,24.0358864 380.122848,23.4007124 L379.115962,21.6567333 L379.981987,21.1567333 L380.988419,22.8999241 C381.994144,22.3946826 383.113993,22.0831989 384.298974,22.0144618 L384.298974,20 L385.298974,20 L385.298974,22.0144618 C386.483956,22.0831989 387.603804,22.3946826 388.60953,22.8999241 L389.615962,21.1567333 L390.481987,21.6567333 L389.4751,23.4007124 C390.437477,24.0358864 391.263088,24.8614977 391.898262,25.8238741 L393.642241,24.8169873 L394.142241,25.6830127 L392.39905,26.6894444 C392.904292,27.6951701 393.215775,28.8150183 393.284512,30 L395.298974,30 L395.298974,31 L393.284512,31 C393.215775,32.1849817 392.904292,33.3048299 392.39905,34.3105556 L394.142241,35.3169873 L393.642241,36.1830127 L391.898262,35.1761259 C391.263088,36.1385023 390.437477,36.9641136 389.4751,37.5992876 L390.481987,39.3432667 L389.615962,39.8432667 L388.60953,38.1000759 Z M388.661551,36.9301941 C389.712872,36.2973143 390.596289,35.4138976 391.229168,34.3625771 L391.366146,34.1253255 C391.960588,33.0508057 392.298974,31.81492 392.298974,30.5 C392.298974,29.1850799 391.960588,27.9491943 391.366146,26.8746744 L391.229168,26.6374227 C390.596289,25.5861024 389.712872,24.7026857 388.661551,24.0698059 L388.4243,23.9328286 C387.34978,23.3383866 386.113894,23 384.798974,23 C383.484054,23 382.248169,23.3383867 381.173649,23.9328287 L380.936397,24.0698059 C379.885077,24.7026857 379.00166,25.5861024 378.36878,26.6374229 L378.231803,26.8746745 C377.637361,27.9491943 377.298974,29.18508 377.298974,30.5 C377.298974,31.8149201 377.637361,33.0508057 378.231803,34.1253256 L378.36878,34.3625771 C379.00166,35.4138976 379.885077,36.2973143 380.936397,36.9301941 L381.17365,37.0671723 C382.248169,37.6616134 383.484054,38 384.798974,38 C386.113894,38 387.34978,37.6616133 388.4243,37.0671713 L388.661552,36.930194 Z M367.220477,39.0392174 C366.728644,39.5512896 366.33034,40.1474235 366.045516,40.7980381 L365.050182,40.4553169 L364.724613,41.4008355 L365.722216,41.7443376 C365.553619,42.4170044 365.500031,43.127723 365.579531,43.8496891 L364.539233,44.0519026 L364.730042,45.0335298 L365.77034,44.8313162 C365.967082,45.5304928 366.283008,46.1693851 366.691314,46.7299134 L365.895031,47.4221117 L366.55109,48.1768212 L367.345563,47.4861967 C367.853371,47.9827392 368.445988,48.3862575 369.093833,48.676799 L368.754291,49.6628992 L369.69981,49.9884674 L370.037211,49.008583 C370.713105,49.1844712 371.428348,49.244031 372.155507,49.1687576 L372.350877,50.173848 L373.332504,49.983039 L373.138369,48.9843032 C373.847516,48.7897323 374.495364,48.472817 375.063224,48.061266 L375.721086,48.8180498 L376.475795,48.1619908 L375.821085,47.4088322 C376.325619,46.8953172 376.734733,46.294478 377.027655,45.6371124 L377.961873,45.9587896 L378.287442,45.013271 L377.357166,44.6929514 C377.533383,44.0090303 377.590552,43.2850766 377.509547,42.5494455 L378.472822,42.3622039 L378.282013,41.3805767 L377.318738,41.5678184 C377.118273,40.8554082 376.794068,40.2055859 376.374481,39.6374774 L377.117024,38.9919948 L376.460965,38.2372853 L375.715275,38.8855036 C375.19743,38.3857351 374.593027,37.9819037 373.932865,37.6947827 L374.257764,36.7512073 L373.312245,36.4256391 L372.985782,37.3737564 C372.305103,37.2048968 371.58571,37.1537462 370.855313,37.2389943 L370.661178,36.2402585 L369.679551,36.4310675 L369.874921,37.4361579 C369.172513,37.6387641 368.531662,37.9619218 367.970873,38.3781969 L367.290969,37.5960567 L366.53626,38.2521157 L367.220477,39.0392174 Z M374.467904,47.257398 C373.898499,47.6681616 373.233062,47.9649353 372.498584,48.1077032 C369.787896,48.6346077 367.163308,46.8643009 366.636403,44.1536123 C366.109499,41.4429237 367.879806,38.8183359 370.590494,38.2914314 C371.324972,38.1486635 372.053127,38.1745502 372.734946,38.3421004 L373.588788,38.6361017 C374.091443,38.8617926 374.554158,39.1691149 374.957026,39.5446399 L374.951546,39.5494033 L375.607605,40.3041129 L375.616716,40.2961928 C375.928006,40.7322363 376.172699,41.2239716 376.333037,41.7594193 L376.318759,41.7621947 L376.509568,42.7438219 L376.523846,42.7410465 C376.575766,43.2975685 376.533097,43.8451613 376.407819,44.3660651 L376.396404,44.3621347 L376.070836,45.3076533 L376.077701,45.3100171 C375.844844,45.8091145 375.530946,46.267395 375.149438,46.6649499 L374.467904,47.257398 Z" id="cms" sketch:type="MSShapeGroup"></path>
        </g>
    </g>
</svg>