<svg xmlns="http://www.w3.org/2000/svg" preserveAspectRatio="xMidYMid" width="34.719" height="46" viewBox="0 0 34.719 46">
  <defs>
    <style>
      .cls-1 { fill: #66b877; fill-rule: evenodd; }
    </style>
  </defs>
  <path d="M17.362 46C9.978 46 3.687 41.41 1.18 34.95l7.182-4.283h2.57l6.692 3.8c1.27 1.205 2.986 1.95 4.88 1.95 3.906 0 7.072-3.147 7.072-7.028 0-3.882-3.166-7.03-7.07-7.03-1.116 0-2.17.257-3.108.714-.834.406-1.57.977-2.18 1.66l-6.285 4.016h-2.57L.72 23.868c1.236-4.144 3.992-7.636 7.63-9.84C11.974 10.853 17.37 5.244 17.363 0c-.01 5.245 5.39 10.854 9.01 14.027 5 3.028 8.347 8.48 8.347 14.723C34.72 38.277 26.947 46 17.36 46z" class="cls-1"/>
</svg>