<svg xmlns="http://www.w3.org/2000/svg" preserveAspectRatio="xMidYMid" width="23.624" height="24" viewBox="0 0 23.624 24"><defs><style>.cls-1 { fill: #ebebeb; fill-rule: evenodd; }</style></defs><path d="M12.072 10.28v4.115h6.894c-.345 1.714-2.068 5.143-6.894 5.143-4.137 0-7.412-3.43-7.412-7.543 0-4.114 3.275-7.542 7.412-7.542 2.413 0 3.964 1.028 4.826 1.886l3.275-3.087c-2.07-2.057-4.827-3.257-8.1-3.257C5.35-.004.005 5.31.005 11.996c0 6.685 5.344 12 12.066 12 6.894 0 11.548-4.8 11.548-11.658 0-.857 0-1.37-.173-2.057H12.072z" class="cls-1"/></svg>