<svg xmlns="http://www.w3.org/2000/svg" preserveAspectRatio="xMidYMid" width="51.875" height="26.566" viewBox="0 0 51.875 26.566">
  <defs>
    <style>
      .cls-1 { fill: #66b877; fill-rule: evenodd; }
    </style>
  </defs>
  <path d="M37.632 22.532v-3.168c0-.24.06-.46.18-.657.12-.198.318-.37.594-.513l6.534-3.366c.528-.264 1.146-.48 1.854-.648-.348-.084-.675-.177-.98-.28-.307-.1-.598-.224-.874-.368l-6.534-3.348c-.276-.144-.474-.315-.594-.513-.12-.197-.18-.416-.18-.656V5.846l14.256 7.434v1.8l-14.256 7.452zm-6.11-12.294c-.403.492-.837.918-1.305 1.278-.468.36-.912.7-1.332 1.017-.42.318-.783.63-1.09.936-.305.305-.488.65-.548 1.034l-.414 2.628H23.79l-.305-2.934c-.012-.06-.018-.11-.018-.153v-.153c0-.528.132-.987.396-1.377.263-.39.594-.756.99-1.098.396-.342.82-.675 1.278-1 .457-.323.883-.674 1.28-1.052.395-.378.725-.807.99-1.287.262-.48.395-1.044.395-1.692 0-.432-.08-.82-.243-1.16-.162-.343-.387-.637-.675-.883-.288-.246-.633-.435-1.035-.567-.403-.132-.837-.198-1.305-.198-.684 0-1.263.075-1.737.225-.475.15-.876.318-1.206.504-.33.186-.61.354-.837.504-.228.15-.432.226-.612.226-.432 0-.745-.18-.936-.54l-1.17-1.854c.406-.36.854-.702 1.34-1.026.486-.324 1.01-.606 1.575-.846C22.52.53 23.13.34 23.79.203c.66-.138 1.375-.207 2.143-.207 1.044 0 1.995.144 2.853.432.857.288 1.593.7 2.205 1.233.613.535 1.087 1.18 1.423 1.936.335.756.504 1.602.504 2.538 0 .912-.133 1.7-.396 2.367s-.596 1.246-.998 1.738zM-.005 13.28L14.25 5.846v3.168c0 .24-.06.46-.18.657-.12.2-.317.37-.593.514l-6.534 3.348c-.276.144-.567.267-.873.37-.306.1-.633.194-.98.278.347.084.674.177.98.28.306.1.597.224.873.368l6.534 3.366c.276.144.474.315.594.513s.18.417.18.657v3.168L-.004 15.08v-1.8zm23.23 8.658c.244-.24.536-.432.872-.576.335-.144.695-.216 1.08-.216.37 0 .726.072 1.062.216.334.144.622.336.863.576.24.24.432.528.576.864.143.336.215.69.215 1.062 0 .384-.072.74-.216 1.07-.145.33-.337.616-.577.856-.24.24-.53.43-.864.567-.337.138-.692.207-1.063.207-.385 0-.745-.07-1.08-.207-.336-.138-.628-.327-.873-.567-.246-.24-.44-.525-.576-.855-.138-.33-.207-.687-.207-1.07 0-.373.07-.727.208-1.063.137-.336.33-.624.576-.864z" class="cls-1"/>
</svg>