<?xml version="1.0" encoding="UTF-8" standalone="no"?>
<svg width="32px" height="32px" viewBox="0 0 32 32" version="1.1" xmlns="http://www.w3.org/2000/svg" xmlns:xlink="http://www.w3.org/1999/xlink" xmlns:sketch="http://www.bohemiancoding.com/sketch/ns">
    <!-- Generator: Sketch 3.4.2 (15857) - http://www.bohemiancoding.com/sketch -->
    <title>optimization</title>
    <desc>Created with Sketch.</desc>
    <defs></defs>
    <g id="Page-1" stroke="none" stroke-width="1" fill="none" fill-rule="evenodd" sketch:type="MSPage">
        <g id="Carousel30-Icons" sketch:type="MSArtboardGroup" transform="translate(-157.000000, -21.000000)" fill="#66B877">
            <path d="M163.985232,48.3307751 C166.427813,50.2031764 169.483379,51.3159221 172.798841,51.3159221 C176.114304,51.3159221 179.16987,50.2031764 181.612451,48.3307751 C181.625351,48.3475406 181.63947,48.3636577 181.654815,48.3790025 L185.892615,52.6168027 C186.083902,52.8080894 186.40688,52.8144851 186.602142,52.6192229 C186.791694,52.4296714 186.796321,52.1062947 186.599722,51.9096959 L182.38517,47.6951436 C185.398218,45.038117 187.298841,41.1489768 187.298841,36.8159221 C187.298841,28.8077932 180.80697,22.3159221 172.798841,22.3159221 C164.790712,22.3159221 158.298841,28.8077932 158.298841,36.8159221 C158.298841,41.1489768 160.199465,45.038117 163.212513,47.6951436 L158.997961,51.9096959 C158.801362,52.1062947 158.805989,52.4296714 158.995541,52.6192229 C159.190803,52.8144851 159.513781,52.8080894 159.705068,52.6168027 L163.942868,48.3790025 C163.958212,48.3636577 163.972331,48.3475406 163.985232,48.3307751 Z M159.307929,37.3159221 C159.564914,44.3742015 165.240562,50.0498494 172.298841,50.3068344 L172.298841,48.8113111 C172.298841,48.5377153 172.530775,48.3159221 172.798841,48.3159221 C173.074984,48.3159221 173.298841,48.5316747 173.298841,48.8113111 L173.298841,50.3068344 C180.357121,50.0498494 186.032769,44.3742015 186.289754,37.3159221 L184.79423,37.3159221 C184.520635,37.3159221 184.298841,37.0839885 184.298841,36.8159221 C184.298841,36.5397797 184.514594,36.3159221 184.79423,36.3159221 L186.289754,36.3159221 C186.032769,29.2576427 180.357121,23.5819948 173.298841,23.3250098 L173.298841,24.8205331 C173.298841,25.0941289 173.066908,25.3159221 172.798841,25.3159221 C172.522699,25.3159221 172.298841,25.1001695 172.298841,24.8205331 L172.298841,23.3250098 C165.240562,23.5819948 159.564914,29.2576427 159.307929,36.3159221 L160.803452,36.3159221 C161.077048,36.3159221 161.298841,36.5478557 161.298841,36.8159221 C161.298841,37.0920645 161.083089,37.3159221 160.803452,37.3159221 L159.307929,37.3159221 Z M173.282918,35.8477636 L171.396678,28.8082215 C171.322347,28.5308146 171.048537,28.3738607 170.781804,28.4453316 C170.522872,28.5147123 170.3579,28.7951511 170.430753,29.0670405 L172.496302,36.7757742 C172.570632,37.053181 172.844443,37.210135 173.111176,37.138664 C173.225334,37.1080753 173.321229,37.0364616 173.386532,36.9426427 L178.425042,34.0336573 C178.65932,33.8983972 178.74909,33.5880796 178.611019,33.3489333 C178.476986,33.1167809 178.165826,33.0286156 177.925042,33.1676319 L173.282918,35.8477636 Z M180.298841,21 C183.832174,22.6785033 186.713809,25.506165 188.460761,29 L187.333869,29 C185.745018,26.051466 183.285176,23.6416504 180.298841,22.1150509 L180.298841,21 Z M165.298841,21 C161.765509,22.6785033 158.883874,25.506165 157.136922,29 L158.263814,29 C159.852665,26.051466 162.312506,23.6416504 165.298841,22.1150509 L165.298841,21 Z" id="optimization" sketch:type="MSShapeGroup"></path>
        </g>
    </g>
</svg>