<?xml version="1.0" encoding="UTF-8" standalone="no"?>
<svg width="32px" height="27px" viewBox="0 0 32 27" version="1.1" xmlns="http://www.w3.org/2000/svg" xmlns:xlink="http://www.w3.org/1999/xlink" xmlns:sketch="http://www.bohemiancoding.com/sketch/ns">
    <!-- Generator: Sketch 3.4.2 (15857) - http://www.bohemiancoding.com/sketch -->
    <title>responsive</title>
    <desc>Created with Sketch.</desc>
    <defs></defs>
    <g id="Page-1" stroke="none" stroke-width="1" fill="none" fill-rule="evenodd" sketch:type="MSPage">
        <g id="Carousel30-Icons" sketch:type="MSArtboardGroup" transform="translate(-321.000000, -23.000000)" fill="#66B877">
            <path d="M351,38 L351,23.9918031 C351,23.4553056 350.553111,23 350.001846,23 L321.998154,23 C321.447365,23 321,23.4440454 321,23.9918031 L321,42.0081969 C321,42.5446944 321.446889,43 321.998154,43 L332,43 L332,46 L330,46 L330,47 L342,47 L342,46 L340,46 L340,43 L346,43 L346,48.9975267 C346,49.544239 346.449027,50 347.002929,50 L351.997071,50 C352.562119,50 353,49.5511774 353,48.9975267 L353,39.0024733 C353,38.455761 352.550973,38 351.997071,38 L351,38 Z M350,38 L350,24 L322,24 L322,42 L346,42 L346,39.0024733 C346,38.4488226 346.437881,38 347.002929,38 L350,38 Z M333,46 L333,43 L339,43 L339,46 L333,46 Z M347,39 L352,39 L352,49 L347,49 L347,39 Z M349.5,48.5 C349.776142,48.5 350,48.2761424 350,48 C350,47.7238576 349.776142,47.5 349.5,47.5 C349.223858,47.5 349,47.7238576 349,48 C349,48.2761424 349.223858,48.5 349.5,48.5 Z" id="responsive" sketch:type="MSShapeGroup"></path>
        </g>
    </g>
</svg>