<svg id="Row_2" xmlns="http://www.w3.org/2000/svg" viewBox="0 0 27 27"><style>.st0{fill:#EBEBEB;}</style><path class="st0" d="M7.1 17.6h.6c1.2 0 2.3-.4 3.3-1.1-.6 0-1.1-.2-1.5-.5-.5-.3-.8-.8-.9-1.3h.5c.2 0 .5 0 .7-.1-.6-.1-1.1-.4-1.5-.9-.4-.5-.6-1-.6-1.7.4.2.8.3 1.2.3-.4-.2-.7-.5-.9-.9-.2-.4-.3-.8-.3-1.3s.1-.9.4-1.3c.7.8 1.5 1.5 2.4 2s2 .8 3 .8c0-.2-.1-.4-.1-.6 0-.7.3-1.3.8-1.9.5-.5 1.1-.8 1.9-.8.8 0 1.4.3 1.9.8.6-.1 1.2-.3 1.7-.6-.2.6-.6 1.1-1.2 1.5.5-.1 1-.2 1.5-.4-.3.5-.8 1-1.3 1.4v.3c0 .7-.1 1.4-.3 2.1-.2.7-.5 1.4-.9 2-.4.6-.9 1.2-1.5 1.7s-1.3.9-2.1 1.2c-.8.3-1.7.4-2.6.4-1.6 0-3-.4-4.2-1.1z"/></svg>