<?xml version="1.0" encoding="UTF-8" standalone="no"?>
<svg width="30px" height="32px" viewBox="0 0 30 32" version="1.1" xmlns="http://www.w3.org/2000/svg" xmlns:xlink="http://www.w3.org/1999/xlink" xmlns:sketch="http://www.bohemiancoding.com/sketch/ns">
    <!-- Generator: Sketch 3.4.2 (15857) - http://www.bohemiancoding.com/sketch -->
    <title>user</title>
    <desc>Created with Sketch.</desc>
    <defs></defs>
    <g id="Page-1" stroke="none" stroke-width="1" fill="none" fill-rule="evenodd" sketch:type="MSPage">
        <g id="Carousel30-Icons" sketch:type="MSArtboardGroup" transform="translate(-280.000000, -20.000000)" fill="#66B877">
            <path d="M303.67638,37.7624937 C306.453759,39.7352199 308.53058,42.6297473 309.460767,46 L308.420243,46 C307.509091,42.9384836 305.578891,40.3158511 303.022991,38.5254494 C301.016214,40.6640532 298.164121,42 295,42 C291.835879,42 288.983786,40.6640532 286.977009,38.5254494 C284.421109,40.3158511 282.490909,42.9384836 281.579757,46 L280.539233,46 C281.46942,42.6297473 283.546241,39.7352199 286.32362,37.7624937 C284.867568,35.8970163 284,33.5498238 284,31 C284,24.9248678 288.924868,20 295,20 C301.075132,20 306,24.9248678 306,31 C306,33.5498238 305.132432,35.8970163 303.67638,37.7624937 Z M295,41 C300.522847,41 305,36.5228475 305,31 C305,25.4771525 300.522847,21 295,21 C289.477153,21 285,25.4771525 285,31 C285,36.5228475 289.477153,41 295,41 Z M280.549988,46 L281.549988,46 L281.549988,52 L280.549988,52 L280.549988,46 Z M308.450012,46 L309.450012,46 L309.450012,52 L308.450012,52 L308.450012,46 Z" id="user" sketch:type="MSShapeGroup"></path>
        </g>
    </g>
</svg>