<svg xmlns="http://www.w3.org/2000/svg" preserveAspectRatio="xMidYMid" width="30.094" height="33.402" viewBox="0 0 30.094 33.402">
  <defs>
    <style>
      .cls-1 { fill: #66b877; fill-rule: evenodd; }
    </style>
  </defs>
  <path d="M30.09 15.41v2.573c-.755 0-1.304.23-1.646.693-.342.462-.513 1.06-.513 1.79 0 .565.04 1.13.118 1.693.078.563.168 1.127.27 1.69.102.565.192 1.132.27 1.702.078.57.117 1.15.117 1.737 0 .91-.132 1.742-.396 2.492-.265.75-.67 1.392-1.216 1.926-.546.534-1.236.948-2.07 1.242-.834.294-1.815.44-2.943.44h-.953v-1.96c0-.157.033-.295.1-.415.065-.12.15-.216.25-.288.103-.072.208-.126.316-.162.108-.036.204-.054.288-.054h.163c.84 0 1.482-.263 1.926-.79.443-.53.665-1.25.665-2.16 0-.66-.036-1.294-.108-1.9-.072-.606-.147-1.194-.225-1.764-.078-.57-.153-1.13-.225-1.683-.072-.552-.108-1.11-.108-1.674 0-.445.062-.87.188-1.28.126-.407.31-.78.55-1.115.24-.336.533-.627.88-.873.35-.246.74-.435 1.17-.567-.43-.12-.82-.306-1.17-.558-.347-.252-.64-.543-.88-.873-.24-.33-.424-.7-.55-1.107-.126-.408-.19-.84-.19-1.296 0-.563.037-1.12.11-1.673.07-.552.146-1.113.224-1.683.078-.57.153-1.158.225-1.764.072-.606.108-1.24.108-1.9 0-.923-.222-1.65-.666-2.177-.445-.528-1.087-.792-1.927-.792h-.162c-.083 0-.18-.017-.287-.053-.108-.036-.213-.09-.315-.162-.102-.072-.186-.165-.252-.28-.066-.113-.1-.248-.1-.404V0h.955c1.13 0 2.11.148 2.944.442.834.294 1.524.71 2.07 1.25.546.54.95 1.186 1.215 1.936.263.75.395 1.58.395 2.493 0 .59-.04 1.168-.117 1.738-.078.57-.168 1.137-.27 1.7-.102.565-.192 1.126-.27 1.684-.078.558-.117 1.12-.117 1.683 0 .732.172 1.33.514 1.79.342.463.89.694 1.647.694zm-13.12-.92c-.24.24-.53.43-.865.568-.336.138-.69.207-1.062.207-.384 0-.744-.07-1.08-.207-.336-.138-.627-.327-.873-.567-.246-.24-.438-.524-.576-.854-.138-.33-.207-.687-.207-1.07 0-.373.07-.727.207-1.063.138-.336.33-.624.576-.864.246-.24.537-.433.873-.577.336-.144.696-.216 1.08-.216.372 0 .726.072 1.062.216.336.144.624.336.864.576.24.24.43.527.575.863.144.336.216.69.216 1.062 0 .384-.07.74-.215 1.07-.144.33-.336.616-.576.856zM5.062 32.95c-.834-.294-1.524-.708-2.07-1.242-.546-.534-.95-1.176-1.215-1.926-.264-.75-.396-1.58-.396-2.493 0-.59.04-1.168.117-1.738.077-.57.167-1.137.27-1.7.1-.565.19-1.13.27-1.693.077-.565.116-1.13.116-1.693 0-.732-.17-1.33-.513-1.79-.342-.463-.89-.694-1.647-.694V15.41c.756 0 1.305-.232 1.647-.694.342-.462.513-1.06.513-1.79 0-.565-.04-1.126-.117-1.684-.08-.558-.17-1.12-.27-1.683-.103-.565-.193-1.132-.27-1.702-.08-.57-.118-1.15-.118-1.737 0-.91.132-1.742.396-2.492s.67-1.395 1.215-1.935c.546-.54 1.236-.957 2.07-1.25C5.897.147 6.878 0 8.006 0h.954v1.98c0 .157-.033.292-.1.406-.065.114-.15.207-.25.28-.103.07-.208.125-.316.16-.108.037-.204.055-.288.055h-.162c-.84 0-1.482.265-1.926.793-.444.528-.666 1.254-.666 2.178 0 .66.036 1.294.108 1.9.072.606.147 1.194.225 1.764.078.57.153 1.13.225 1.683.072.552.108 1.11.108 1.674 0 .457-.063.89-.19 1.297-.125.408-.31.777-.557 1.107-.245.33-.54.62-.88.873-.343.252-.73.438-1.162.558.432.132.82.32 1.16.567.343.246.637.537.883.873.247.336.433.708.56 1.116.125.41.188.835.188 1.28 0 .563-.036 1.12-.108 1.673-.072.552-.147 1.113-.225 1.683-.078.57-.153 1.158-.225 1.764-.072.606-.108 1.24-.108 1.9 0 .91.222 1.63.666 2.16.444.527 1.086.79 1.926.79h.162c.084 0 .18.02.288.055.108.036.213.09.315.162.1.072.185.168.25.288.067.12.1.258.1.414v1.96h-.954c-1.128 0-2.11-.146-2.943-.44zm8.09-9.558c.228-.222.504-.396.828-.522.325-.126.68-.19 1.063-.19.456 0 .852.082 1.188.244.337.162.62.384.847.666.228.282.396.606.504.972.11.366.163.753.163 1.16 0 .577-.087 1.183-.26 1.82-.175.635-.43 1.27-.766 1.907-.336.635-.75 1.253-1.242 1.853-.492.6-1.056 1.152-1.692 1.656l-.774-.703c-.217-.18-.325-.402-.325-.666 0-.095.033-.203.1-.323.065-.12.146-.228.242-.324l.486-.53c.192-.21.384-.45.576-.72.19-.27.368-.565.53-.883.162-.318.28-.657.35-1.017-.37 0-.713-.07-1.025-.207-.312-.138-.58-.327-.8-.567-.223-.24-.397-.523-.523-.847-.126-.324-.19-.678-.19-1.062 0-.335.064-.65.19-.944.126-.294.303-.552.53-.774z" class="cls-1"/>
</svg>