<svg xmlns="http://www.w3.org/2000/svg" preserveAspectRatio="xMidYMid" width="36" height="36" viewBox="0 0 36 36">
  <defs>
    <style>
      .cls-1 { fill: #66b877; fill-rule: evenodd; }
    </style>
  </defs>
  <path d="M36 18c0 6.64-3.6 12.437-8.95 15.557l5.497-15.895c1.027-2.568 1.37-4.62 1.37-6.447 0-.663-.045-1.278-.122-1.85C35.2 11.927 36 14.868 36 17.998zM26.898 7.905c0 1.483.857 2.738 1.768 4.22.685 1.2 1.485 2.74 1.485 4.965 0 1.542-.592 3.33-1.37 5.82l-1.795 5.998L20.48 9.56c1.084-.057 2.06-.17 2.06-.17.97-.116.856-1.54-.114-1.484 0 0-2.916.23-4.798.23-1.77 0-4.74-.23-4.74-.23-.97-.057-1.085 1.426-.115 1.483 0 0 .918.113 1.888.17l2.805 7.684-3.94 11.813L6.972 9.56c1.086-.057 2.06-.17 2.06-.17.97-.116.856-1.54-.114-1.485 0 0-2.915.23-4.797.23-.34 0-.737-.01-1.16-.023C6.18 3.226 11.71 0 18 0c4.686 0 8.952 1.792 12.154 4.726-.077-.005-.153-.015-.233-.015-1.767 0-3.022 1.54-3.022 3.196zM0 18c0-2.61.56-5.088 1.56-7.326l8.585 23.524C4.14 31.28 0 25.124 0 17.998zm23.848 16.73c.037.09.08.172.13.25C22.105 35.637 20.095 36 18 36c-1.767 0-3.472-.26-5.085-.734l5.4-15.693L23.85 34.73z" class="cls-1"/>
</svg>